<?xml version="1.0" ?><!DOCTYPE svg  PUBLIC '-//W3C//DTD SVG 1.1//EN'  'http://www.w3.org/Graphics/SVG/1.1/DTD/svg11.dtd'><svg id="Layer_1" style="enable-background:new 0 0 78 78;" version="1.1" viewBox="0 0 78 78" xml:space="preserve" xmlns="http://www.w3.org/2000/svg" xmlns:xlink="http://www.w3.org/1999/xlink"><style type="text/css">
	.st0{fill:none;stroke:#FFBA00;stroke-width:2;stroke-linecap:round;stroke-linejoin:round;stroke-miterlimit:10;}
	.st1{fill:#FFBA00;}
	.st2{fill:#2A445D;stroke:#FFBA00;stroke-miterlimit:10;}
	.st3{fill:#171715;}
	.st4{fill:#FFAC35;}
	.st5{fill:#AAC148;}
	.st6{fill:#0067FF;}
	.st7{fill:#00AEF0;}
	.st8{fill:#222A30;}
	.st9{fill:#90A358;}
	.st10{fill:#FFFFFF;}
	.st11{fill:#0074D2;}
	.st12{fill:#D4D1D1;}
	.st13{fill:#01CB3E;}
	.st14{fill:#A6285F;}
	.st15{fill:#1587EA;}
	.st16{fill:#90B24C;}
	.st17{fill:#E65300;}
	.st18{fill:#475993;}
	.st19{fill:#005DE1;}
	.st20{fill:#FF007E;}
	.st21{fill:#FF4175;}
	.st22{fill:#F34A38;}
	.st23{fill:#333F40;}
	.st24{fill:#FF9414;}
	.st25{fill:#0090E1;}
	.st26{fill:#FC490B;}
	.st27{fill:url(#XMLID_10_);}
	.st28{fill:url(#XMLID_11_);}
	.st29{fill:url(#XMLID_12_);}
	.st30{fill:#00CE62;}
	.st31{fill:#0077B7;}
	.st32{fill:#00FD8D;}
	.st33{fill:#00E470;}
	.st34{fill:#00C967;}
	.st35{fill:#00AD6C;}
	.st36{fill:#EB4427;}
	.st37{fill:#002987;}
	.st38{fill:#0085CC;}
	.st39{fill:#00186A;}
	.st40{fill:#00A4C3;}
	.st41{fill:#FF4B30;}
	.st42{fill:#9F1121;}
	.st43{fill:#2950A1;}
	.st44{fill:#CF2217;}
	.st45{fill:#0088C3;}
	.st46{fill:#FF1A03;}
	.st47{fill:#00AAF2;}
	.st48{fill:#050505;}
	.st49{fill:url(#SVGID_1_);}
	.st50{fill:url(#SVGID_2_);}
	.st51{fill:url(#SVGID_3_);}
	.st52{fill:url(#SVGID_4_);}
	.st53{fill:url(#SVGID_5_);}
	.st54{fill:url(#SVGID_6_);}
	.st55{fill:url(#SVGID_7_);}
	.st56{fill:url(#SVGID_8_);}
	.st57{fill:url(#SVGID_9_);}
	.st58{fill:url(#SVGID_10_);}
	.st59{fill:url(#SVGID_11_);}
	.st60{fill:#00D95F;}
	.st61{fill:#FF4403;}
	.st62{fill:#518FE1;}
	.st63{fill:#2A445D;}
	.st64{fill:#76A9EA;}
	.st65{fill:#69B4E5;}
	.st66{fill:#04B086;}
	.st67{fill:#7AD06D;}
	.st68{fill:#00769D;}
	.st69{fill:#DC0000;}
	.st70{fill:#F61C0D;}
</style><g><g><path class="st0" d="M57.3,45.8l-2.2-3.4c-0.7-1.1-1-2.3-1-3.5V24.5c0-5.7,0.4-17.9-15.9-17.9c-13.3,0-17.4,7.1-18.6,11.4    c-0.5,1.7,0.7,3.5,2.5,3.7l5.1,0.5c1.2,0.1,2.4-0.5,2.9-1.6c1-2.1,2.7-5.2,8.1-5.2c2.1,0,5,0.9,5,3.4c0,3.7,0,5.5,0,5.5l0,0    c0,0.8-0.6,1.4-1.4,1.4h-5c-3.8,0-18.2,1.9-18.2,16.4S33.8,55,34.8,54.7c1.9-0.4,5.4-1.7,8.8-4.9c0.6-0.5,1.5-0.5,1.9,0.1l2.7,3.3    c1,1.3,3,1.4,4.2,0.3l4.4-4.1C57.8,48.5,58,46.9,57.3,45.8z M35.2,45c-5.1,0-5-4.6-3.8-6.8c1.1-2.1,4-5.7,11.9-6l0.1,3.8    c0.1,2.8-1.3,5.6-3.6,7.2C38.3,44.2,36.7,45,35.2,45z"/><g><path class="st0" d="M3.2,59.4c-0.7-0.7,0.1-1.8,1-1.4c6.3,3.1,18.1,7.9,31.1,7.9c13.3,0,24.5-3.2,30.1-5.1     c0.9-0.3,1.6,0.9,0.8,1.5c-4.5,3.6-14,9.2-30.5,9.2C19.1,71.4,8.4,64.1,3.2,59.4z"/><path class="st0" d="M60.8,56.1c1.8-1.4,6.4-3.7,13.2-1.7c0.6,0.2,1.1,0.8,1.1,1.4c0,2.2-0.5,7.5-4.8,11.8     c-0.3,0.3-0.8,0-0.7-0.4c0.7-2.8,2.3-8.7,1.8-9.5c-0.6-0.9-7.5-1-10.3-1C60.7,56.8,60.5,56.3,60.8,56.1z"/></g></g></g></svg>