<?xml version="1.0" encoding="utf-8"?>
<!-- Svg Vector Icons : http://www.onlinewebfonts.com/icon -->
<!DOCTYPE svg PUBLIC "-//W3C//DTD SVG 1.1//EN" "http://www.w3.org/Graphics/SVG/1.1/DTD/svg11.dtd">
<svg version="1.1" xmlns="http://www.w3.org/2000/svg" xmlns:xlink="http://www.w3.org/1999/xlink" x="0px" y="0px" viewBox="0 0 256 256" enable-background="new 0 0 256 256" xml:space="preserve">
<metadata> Svg Vector Icons : http://www.onlinewebfonts.com/icon </metadata>
<g><g><path fill="#000000" d="M48.3,13.7c1.1,2.4,2.2,4.8,3.4,7.2c15.3,31.6,30.7,63.2,46,94.8c0.3,0.7,0.7,0.9,1.4,0.9c26.8,0,53.5,0,80.3,0c0.7,0,1.1-0.2,1.4-0.8c14.8-26.2,29.6-52.4,44.4-78.5c0.1-0.2,0.2-0.4,0.4-0.7c0.2,0.1,0.5,0.2,0.7,0.4c6.4,3.4,12.7,6.8,19.1,10.2c0.2,0.1,0.5,0.2,0.7,0.3c0,0,0,0.1,0,0.1c-1.9,3.3-3.8,6.6-5.6,9.9c-13.1,23.2-26.2,46.4-39.3,69.7c-3.8,6.8-9.7,10.7-17.3,11.9c-1.3,0.2-2.6,0.2-3.9,0.2c-28.6,0-57.2,0-85.7,0c-0.8,0-1.2,0.2-1.5,0.9c-3.2,5.8-6.5,11.5-9.7,17.2c-0.4,0.7-0.6,1.5-0.6,2.2c0,1.3,1.3,2.4,2.5,2.5c0.4,0,0.8,0,1.1,0c44.6,0,89.2,0,133.7,0c0.3,0,0.6,0,1,0c0,7.6,0,15.2,0,22.9c-0.2,0-0.5,0-0.7,0c-46.5,0-93,0-139.5,0c-10.4,0-19.4-6.3-22.5-15.9c-2-6.1-1.5-12.1,1.7-17.8c5.2-9.2,10.4-18.4,15.6-27.6c0.2-0.4,0.3-0.8,0-1.2c-13.8-28.5-27.7-57-41.5-85.5c-0.2-0.5-0.5-0.7-1-0.7c-7.6,0-15.1,0-22.7,0c0-7.6,0-15.2,0-22.9C22.7,13.7,35.5,13.7,48.3,13.7z"/><path fill="#000000" d="M78.3,242.2c-1.4-0.3-2.9-0.4-4.3-0.8c-9.2-2.8-15.1-8.9-16.8-18.4c-1.8-10.2,3.6-19.8,13-24.2c13.1-6.1,28.7,1,32.6,14.7c3,10.7-2.5,22.1-13,26.8c-2.3,1-4.7,1.7-7.2,1.9c-0.2,0-0.3,0.1-0.5,0.1C80.8,242.2,79.6,242.2,78.3,242.2z"/><path fill="#000000" d="M195.4,242.2c-1.4-0.3-2.9-0.5-4.3-0.8c-8.9-2.3-15.7-10-16.9-18.9c-1.3-9.9,3.9-19.4,13.1-23.7c13.2-6.2,28.9,1,32.7,14.9c2.9,10.5-2.6,21.7-12.8,26.4c-2.4,1.1-4.9,1.8-7.5,2c-0.1,0-0.3,0.1-0.5,0.1C198,242.2,196.7,242.2,195.4,242.2z"/></g></g>
</svg>