<?xml version="1.0" encoding="UTF-8"?>
<!DOCTYPE svg PUBLIC "-//W3C//DTD SVG 1.1//EN" "http://www.w3.org/Graphics/SVG/1.1/DTD/svg11.dtd">
<svg xmlns="http://www.w3.org/2000/svg" version="1.1" width="648px" height="848px" style="shape-rendering:geometricPrecision; text-rendering:geometricPrecision; image-rendering:optimizeQuality; fill-rule:evenodd; clip-rule:evenodd" xmlns:xlink="http://www.w3.org/1999/xlink">
<g><path style="opacity:0.877" fill="#f5f4f5" d="M 321.5,69.5 C 320.91,70.766 320.41,72.0993 320,73.5C 312.996,79.3377 306.496,85.671 300.5,92.5C 299.391,92.5569 298.391,92.8902 297.5,93.5C 292.858,94.1199 288.024,94.1199 283,93.5C 281.855,94.6364 280.688,95.6364 279.5,96.5C 267.37,98.5843 255.703,101.918 244.5,106.5C 243.5,106.5 242.5,106.5 241.5,106.5C 240.475,106.103 240.308,105.437 241,104.5C 251.451,94.2179 261.617,83.8846 271.5,73.5C 273.205,72.4647 274.872,72.4647 276.5,73.5C 282.238,70.2655 288.405,68.5988 295,68.5C 303.474,69.4145 312.307,69.7478 321.5,69.5 Z"/></g>
<g><path style="opacity:0.99" fill="#f3f2f3" d="M 355.5,69.5 C 348.703,76.7982 341.703,83.9649 334.5,91C 337.365,91.1829 340.031,91.6829 342.5,92.5C 342.167,92.5 341.833,92.5 341.5,92.5C 335.167,92.5 328.833,92.5 322.5,92.5C 321.833,92.5 321.167,92.5 320.5,92.5C 316.167,92.5 311.833,92.5 307.5,92.5C 305.167,92.5 302.833,92.5 300.5,92.5C 306.496,85.671 312.996,79.3377 320,73.5C 320.41,72.0993 320.91,70.766 321.5,69.5C 333.029,69.3431 344.363,69.3431 355.5,69.5 Z"/></g>
<g><path style="opacity:0.906" fill="#f7f6f7" d="M 355.5,69.5 C 360.35,69.7015 365.35,69.8682 370.5,70C 371.167,70.6667 371.833,71.3333 372.5,72C 378.249,71.9255 383.583,73.0921 388.5,75.5C 382.81,81.6938 376.81,87.8605 370.5,94C 369.207,94.49 367.873,94.6567 366.5,94.5C 358.473,94.0444 350.473,93.3778 342.5,92.5C 340.031,91.6829 337.365,91.1829 334.5,91C 341.703,83.9649 348.703,76.7982 355.5,69.5 Z"/></g>
<g><path style="opacity:0.935" fill="#f2f1f3" d="M 271.5,73.5 C 261.617,83.8846 251.451,94.2179 241,104.5C 240.308,105.437 240.475,106.103 241.5,106.5C 238.431,106.985 235.764,108.319 233.5,110.5C 218.441,116.862 204.108,124.529 190.5,133.5C 190.062,133.565 189.728,133.399 189.5,133C 204.574,115.594 220.574,99.2606 237.5,84C 237.272,83.6012 236.938,83.4346 236.5,83.5C 242.832,80.5724 249.498,78.2391 256.5,76.5C 257.086,76.7093 257.586,77.0426 258,77.5C 262.345,75.7287 266.845,74.3954 271.5,73.5 Z"/></g>
<g><path style="opacity:0.895" fill="#f4f2f4" d="M 421.5,84.5 C 414.481,91.5543 407.481,97.8877 400.5,103.5C 398.883,102.962 397.216,102.629 395.5,102.5C 385.79,100.017 376.123,97.3501 366.5,94.5C 367.873,94.6567 369.207,94.49 370.5,94C 376.81,87.8605 382.81,81.6938 388.5,75.5C 391.336,75.1452 394.169,75.8118 397,77.5C 397.333,77.1667 397.667,76.8333 398,76.5C 405.747,78.9092 413.58,81.5758 421.5,84.5 Z"/></g>
<g><path style="opacity:0.973" fill="#f1eff1" d="M 236.5,83.5 C 236.938,83.4346 237.272,83.6012 237.5,84C 220.574,99.2606 204.574,115.594 189.5,133C 189.728,133.399 190.062,133.565 190.5,133.5C 177.002,142.983 164.335,153.649 152.5,165.5C 143.862,175.141 135.195,184.808 126.5,194.5C 124.071,195.855 122.738,197.522 122.5,199.5C 107.553,214.112 92.5535,228.779 77.5,243.5C 78.937,237.843 80.937,232.51 83.5,227.5C 129.417,183.084 174.917,138.084 220,92.5C 220.464,91.9056 220.631,91.2389 220.5,90.5C 224.4,88.8773 228.067,86.7106 231.5,84C 233.134,83.5065 234.801,83.3398 236.5,83.5 Z"/></g>
<g><path style="opacity:0.004" fill="#fefffe" d="M 436.5,89.5 C 437.833,90.1667 437.833,90.1667 436.5,89.5 Z"/></g>
<g><path style="opacity:0.978" fill="#fcfcfc" d="M 220.5,90.5 C 220.631,91.2389 220.464,91.9056 220,92.5C 174.917,138.084 129.417,183.084 83.5,227.5C 84.8951,223.71 86.5617,220.043 88.5,216.5C 129.836,176.167 170.169,135.5 209.5,94.5C 210.52,93.0462 211.687,92.7129 213,93.5C 215.308,92.0087 217.808,91.0087 220.5,90.5 Z"/></g>
<g><path style="opacity:1" fill="#9e9b9c" d="M 297.5,93.5 C 297.389,94.1174 297.056,94.6174 296.5,95C 290.82,95.4455 285.154,95.9455 279.5,96.5C 280.688,95.6364 281.855,94.6364 283,93.5C 288.024,94.1199 292.858,94.1199 297.5,93.5 Z"/></g>
<g><path style="opacity:0.711" fill="#585458" d="M 320.5,92.5 C 321.167,92.5 321.833,92.5 322.5,92.5C 319.471,95.859 316.471,99.1924 313.5,102.5C 311.833,102.5 310.167,102.5 308.5,102.5C 311.678,97.9718 315.678,94.6385 320.5,92.5 Z"/></g>
<g><path style="opacity:0.916" fill="#f6f5f6" d="M 421.5,84.5 C 424.849,85.259 427.682,86.9256 430,89.5C 430.414,89.0426 430.914,88.7093 431.5,88.5C 432.853,90.7009 434.52,91.3676 436.5,90.5C 445.711,95.0701 455.044,100.07 464.5,105.5C 458.167,111.167 452.167,117.167 446.5,123.5C 436.4,118.95 426.4,114.117 416.5,109C 411.101,107.256 405.768,105.423 400.5,103.5C 407.481,97.8877 414.481,91.5543 421.5,84.5 Z"/></g>
<g><path style="opacity:0.973" fill="#edebee" d="M 209.5,94.5 C 170.169,135.5 129.836,176.167 88.5,216.5C 91.3669,209.775 95.0335,203.441 99.5,197.5C 99.2907,196.914 98.9574,196.414 98.5,196C 100.402,194.27 102.069,192.437 103.5,190.5C 104.552,190.649 105.552,190.483 106.5,190C 130.035,166.298 153.701,142.798 177.5,119.5C 183.195,114.473 188.195,109.473 192.5,104.5C 193.031,102.376 194.365,100.876 196.5,100C 201.014,98.4446 205.347,96.6113 209.5,94.5 Z"/></g>
<g><path style="opacity:1" fill="#3b3638" d="M 322.5,92.5 C 328.833,92.5 335.167,92.5 341.5,92.5C 338.5,95.8333 335.5,99.1667 332.5,102.5C 331.833,102.5 331.167,102.5 330.5,102.5C 332.243,99.2496 334.577,96.4162 337.5,94C 335.5,93.3333 333.5,93.3333 331.5,94C 329.332,96.9981 326.999,99.8314 324.5,102.5C 323.833,102.5 323.167,102.5 322.5,102.5C 324.22,99.2689 326.553,96.4356 329.5,94C 327.833,93.3333 326.167,93.3333 324.5,94C 321.601,96.7291 318.934,99.5624 316.5,102.5C 315.5,102.5 314.5,102.5 313.5,102.5C 316.471,99.1924 319.471,95.859 322.5,92.5 Z"/></g>
<g><path style="opacity:0.786" fill="#575256" d="M 330.5,102.5 C 328.5,102.5 326.5,102.5 324.5,102.5C 326.999,99.8314 329.332,96.9981 331.5,94C 333.5,93.3333 335.5,93.3333 337.5,94C 334.577,96.4162 332.243,99.2496 330.5,102.5 Z"/></g>
<g><path style="opacity:0.846" fill="#585358" d="M 322.5,102.5 C 320.5,102.5 318.5,102.5 316.5,102.5C 318.934,99.5624 321.601,96.7291 324.5,94C 326.167,93.3333 327.833,93.3333 329.5,94C 326.553,96.4356 324.22,99.2689 322.5,102.5 Z"/></g>
<g><path style="opacity:1" fill="#3a3638" d="M 307.5,92.5 C 311.833,92.5 316.167,92.5 320.5,92.5C 315.678,94.6385 311.678,97.9718 308.5,102.5C 307.5,102.5 306.5,102.5 305.5,102.5C 307.962,99.5361 310.629,96.7028 313.5,94C 307.757,94.56 303.424,97.3933 300.5,102.5C 299.833,102.5 299.167,102.5 298.5,102.5C 300.817,98.5182 303.817,95.1849 307.5,92.5 Z"/></g>
<g><path style="opacity:0.311" fill="#59555a" d="M 305.5,102.5 C 303.833,102.5 302.167,102.5 300.5,102.5C 303.424,97.3933 307.757,94.56 313.5,94C 310.629,96.7028 307.962,99.5361 305.5,102.5 Z"/></g>
<g><path style="opacity:0.973" fill="#fbfbfb" d="M 186.5,108.5 C 183.098,111.895 180.098,115.562 177.5,119.5C 153.701,142.798 130.035,166.298 106.5,190C 105.552,190.483 104.552,190.649 103.5,190.5C 107.731,183.268 112.731,176.601 118.5,170.5C 137.423,151.58 156.757,132.913 176.5,114.5C 179.42,112.03 182.754,110.03 186.5,108.5 Z"/></g>
<g><path style="opacity:0.322" fill="#504b4f" d="M 341.5,92.5 C 341.833,92.5 342.167,92.5 342.5,92.5C 350.473,93.3778 358.473,94.0444 366.5,94.5C 376.123,97.3501 385.79,100.017 395.5,102.5C 390.988,104.334 387.321,107.334 384.5,111.5C 380.838,109.247 376.172,107.747 370.5,107C 360.056,105.239 349.723,103.739 339.5,102.5C 342.426,99.6828 345.426,96.8494 348.5,94C 348,93.8333 347.5,93.6667 347,93.5C 343.345,95.9885 340.178,98.9885 337.5,102.5C 335.833,102.5 334.167,102.5 332.5,102.5C 335.5,99.1667 338.5,95.8333 341.5,92.5 Z"/></g>
<g><path style="opacity:0.325" fill="#2d272b" d="M 339.5,102.5 C 338.833,102.5 338.167,102.5 337.5,102.5C 340.178,98.9885 343.345,95.9885 347,93.5C 347.5,93.6667 348,93.8333 348.5,94C 345.426,96.8494 342.426,99.6828 339.5,102.5 Z"/></g>
<g><path style="opacity:1" fill="#8a8587" d="M 241.5,106.5 C 242.5,106.5 243.5,106.5 244.5,106.5C 244.047,107.458 243.381,108.292 242.5,109C 239.522,109.696 236.522,110.196 233.5,110.5C 235.764,108.319 238.431,106.985 241.5,106.5 Z"/></g>
<g><path style="opacity:0.992" fill="#c7c4cb" d="M 192.5,104.5 C 188.195,109.473 183.195,114.473 177.5,119.5C 180.098,115.562 183.098,111.895 186.5,108.5C 188.118,106.684 190.118,105.351 192.5,104.5 Z"/></g>
<g><path style="opacity:0.415" fill="#555155" d="M 300.5,92.5 C 302.833,92.5 305.167,92.5 307.5,92.5C 303.817,95.1849 300.817,98.5182 298.5,102.5C 287.461,103.67 276.461,105.17 265.5,107C 250.488,111.657 235.488,116.657 220.5,122C 209.05,128.708 197.384,135.041 185.5,141C 173.774,148.871 162.774,157.705 152.5,167.5C 152.5,166.833 152.5,166.167 152.5,165.5C 164.335,153.649 177.002,142.983 190.5,133.5C 204.108,124.529 218.441,116.862 233.5,110.5C 236.522,110.196 239.522,109.696 242.5,109C 243.381,108.292 244.047,107.458 244.5,106.5C 255.703,101.918 267.37,98.5843 279.5,96.5C 285.154,95.9455 290.82,95.4455 296.5,95C 297.056,94.6174 297.389,94.1174 297.5,93.5C 298.391,92.8902 299.391,92.5569 300.5,92.5 Z"/></g>
<g><path style="opacity:0.917" fill="#f7f6f7" d="M 464.5,105.5 C 470.058,109.865 476.058,113.698 482.5,117C 486.705,121.042 491.038,124.875 495.5,128.5C 491.525,134.64 486.358,139.64 480,143.5C 479.517,144.448 479.351,145.448 479.5,146.5C 468.732,138.382 457.732,130.715 446.5,123.5C 452.167,117.167 458.167,111.167 464.5,105.5 Z"/></g>
<g><path style="opacity:0.757" fill="#484448" d="M 395.5,102.5 C 397.216,102.629 398.883,102.962 400.5,103.5C 405.768,105.423 411.101,107.256 416.5,109C 426.4,114.117 436.4,118.95 446.5,123.5C 457.732,130.715 468.732,138.382 479.5,146.5C 480.167,147.5 480.833,148.5 481.5,149.5C 479.167,152.5 476.5,155.167 473.5,157.5C 464.243,151.901 455.577,145.567 447.5,138.5C 449.433,136.063 451.6,133.729 454,131.5C 454.667,130.833 454.667,130.167 454,129.5C 451.297,132.371 448.464,135.038 445.5,137.5C 434.448,132.807 423.781,127.307 413.5,121C 403.751,117.694 394.084,114.527 384.5,111.5C 387.321,107.334 390.988,104.334 395.5,102.5 Z"/></g>
<g><path style="opacity:0.929" fill="#f6f5f6" d="M 495.5,128.5 C 496.922,128.709 498.255,129.209 499.5,130C 504.034,135.032 508.7,139.866 513.5,144.5C 507.064,149.932 501.397,155.932 496.5,162.5C 493.192,159.529 489.859,156.529 486.5,153.5C 485.5,151.833 484.167,150.5 482.5,149.5C 482.167,149.5 481.833,149.5 481.5,149.5C 480.833,148.5 480.167,147.5 479.5,146.5C 479.351,145.448 479.517,144.448 480,143.5C 486.358,139.64 491.525,134.64 495.5,128.5 Z"/></g>
<g><path style="opacity:1" fill="#211f21" d="M 447.5,138.5 C 446.508,138.672 445.842,138.338 445.5,137.5C 448.464,135.038 451.297,132.371 454,129.5C 454.667,130.167 454.667,130.833 454,131.5C 451.6,133.729 449.433,136.063 447.5,138.5 Z"/></g>
<g><path style="opacity:0.878" fill="#cdccce" d="M 176.5,114.5 C 156.757,132.913 137.423,151.58 118.5,170.5C 119.382,167.615 120.716,164.948 122.5,162.5C 138.361,143.965 156.361,127.965 176.5,114.5 Z"/></g>
<g><path style="opacity:0.935" fill="#f7f6f7" d="M 513.5,144.5 C 528.66,158.557 541.66,174.223 552.5,191.5C 552.833,192.167 553.167,192.833 553.5,193.5C 546.479,198.521 540.479,204.521 535.5,211.5C 531.833,206.167 528.167,200.833 524.5,195.5C 520.185,189.19 515.518,183.19 510.5,177.5C 505.805,172.474 501.139,167.474 496.5,162.5C 501.397,155.932 507.064,149.932 513.5,144.5 Z"/></g>
<g><path style="opacity:0.996" fill="#222123" d="M 481.5,149.5 C 481.833,149.5 482.167,149.5 482.5,149.5C 482.649,150.552 482.483,151.552 482,152.5C 479.288,154.377 477.122,156.71 475.5,159.5C 474.5,159.167 473.833,158.5 473.5,157.5C 476.5,155.167 479.167,152.5 481.5,149.5 Z"/></g>
<g><path style="opacity:0.827" fill="#524b51" d="M 482.5,149.5 C 484.167,150.5 485.5,151.833 486.5,153.5C 483.167,156.167 480.167,159.167 477.5,162.5C 476.094,162.027 475.427,161.027 475.5,159.5C 477.122,156.71 479.288,154.377 482,152.5C 482.483,151.552 482.649,150.552 482.5,149.5 Z"/></g>
<g><path style="opacity:0.898" fill="#403c40" d="M 486.5,153.5 C 489.859,156.529 493.192,159.529 496.5,162.5C 501.139,167.474 505.805,172.474 510.5,177.5C 507.167,180.167 504.167,183.167 501.5,186.5C 493.491,178.457 485.491,170.457 477.5,162.5C 480.167,159.167 483.167,156.167 486.5,153.5 Z"/></g>
<g><path style="opacity:1" fill="#1a1c1d" d="M 510.5,177.5 C 508.237,181.103 505.57,184.436 502.5,187.5C 501.833,187.5 501.5,187.167 501.5,186.5C 504.167,183.167 507.167,180.167 510.5,177.5 Z"/></g>
<g><path style="opacity:0.604" fill="#9f989c" d="M 152.5,165.5 C 152.5,166.167 152.5,166.833 152.5,167.5C 145.471,175.525 138.471,183.525 131.5,191.5C 129.871,192.625 128.371,193.959 127,195.5C 126.601,195.272 126.435,194.938 126.5,194.5C 135.195,184.808 143.862,175.141 152.5,165.5 Z"/></g>
<g><path style="opacity:0.004" fill="#fefffe" d="M 552.5,190.5 C 553.833,191.167 553.833,191.167 552.5,190.5 Z"/></g>
<g><path style="opacity:0.913" fill="#f7f6f8" d="M 553.5,193.5 C 560.561,202.108 565.394,211.108 568,220.5C 575.663,232.7 580.497,245.367 582.5,258.5C 576.838,265.161 570.504,271.161 563.5,276.5C 562.817,276.137 562.15,275.804 561.5,275.5C 560.489,272.06 559.489,268.726 558.5,265.5C 555.128,252.104 550.128,239.437 543.5,227.5C 540.833,222.167 538.167,216.833 535.5,211.5C 540.479,204.521 546.479,198.521 553.5,193.5 Z"/></g>
<g><path style="opacity:0.458" fill="#3f3c40" d="M 510.5,177.5 C 515.518,183.19 520.185,189.19 524.5,195.5C 521.5,198.167 518.5,200.833 515.5,203.5C 513.922,202.934 512.588,201.934 511.5,200.5C 508.737,195.963 505.737,191.63 502.5,187.5C 505.57,184.436 508.237,181.103 510.5,177.5 Z"/></g>
<g><path style="opacity:0.942" fill="#f4f3f4" d="M 347.5,197.5 C 339.798,205.2 332.465,213.2 325.5,221.5C 322.941,221.198 320.607,221.532 318.5,222.5C 316.5,222.5 314.5,222.5 312.5,222.5C 304.936,223.135 297.936,225.135 291.5,228.5C 289.708,228.366 288.042,228.699 286.5,229.5C 286.062,229.565 285.728,229.399 285.5,229C 296.033,217.635 306.7,206.468 317.5,195.5C 319.597,195.003 321.43,194.67 323,194.5C 331.507,195.09 339.674,196.09 347.5,197.5 Z"/></g>
<g><path style="opacity:0.978" fill="#f0eff1" d="M 317.5,195.5 C 306.7,206.468 296.033,217.635 285.5,229C 285.728,229.399 286.062,229.565 286.5,229.5C 278.779,233.871 271.112,238.537 263.5,243.5C 262.883,243.389 262.383,243.056 262,242.5C 257.039,248.143 251.872,253.476 246.5,258.5C 242.131,261.837 238.797,265.503 236.5,269.5C 225.193,280.473 213.86,291.473 202.5,302.5C 202.717,297.553 203.717,292.886 205.5,288.5C 205.435,288.938 205.601,289.272 206,289.5C 236.724,260.277 266.557,230.277 295.5,199.5C 302.547,197.345 309.88,196.012 317.5,195.5 Z"/></g>
<g><path style="opacity:0.968" fill="#fcfcfc" d="M 295.5,199.5 C 266.557,230.277 236.724,260.277 206,289.5C 205.601,289.272 205.435,288.938 205.5,288.5C 205.94,285.62 206.94,282.954 208.5,280.5C 235.167,254.5 261.5,228.167 287.5,201.5C 289.913,199.949 292.579,199.283 295.5,199.5 Z"/></g>
<g><path style="opacity:0.145" fill="#d8d5d8" d="M 131.5,191.5 C 127.068,199.374 122.401,207.041 117.5,214.5C 113.765,216.725 110.432,219.558 107.5,223C 106.833,223.667 106.167,223.667 105.5,223C 109.333,219.167 113.167,215.333 117,211.5C 119.336,206.825 122.169,202.492 125.5,198.5C 125.333,198.167 125.167,197.833 125,197.5C 124.292,198.381 123.458,199.047 122.5,199.5C 122.738,197.522 124.071,195.855 126.5,194.5C 126.435,194.938 126.601,195.272 127,195.5C 128.371,193.959 129.871,192.625 131.5,191.5 Z"/></g>
<g><path style="opacity:0.945" fill="#edebee" d="M 287.5,201.5 C 261.5,228.167 235.167,254.5 208.5,280.5C 208.389,279.883 208.056,279.383 207.5,279C 210.344,273.809 213.011,268.642 215.5,263.5C 233.769,246.733 251.602,229.399 269,211.5C 269.464,210.906 269.631,210.239 269.5,209.5C 274.73,205.221 280.73,202.554 287.5,201.5 Z"/></g>
<g><path style="opacity:0.909" fill="#f5f4f5" d="M 347.5,197.5 C 356.869,198.339 365.869,200.505 374.5,204C 382.896,208.86 391.23,213.693 399.5,218.5C 393.167,224.5 386.833,230.5 380.5,236.5C 376.994,234.657 373.327,232.99 369.5,231.5C 369.167,231.5 368.833,231.5 368.5,231.5C 358.487,226.687 347.82,223.687 336.5,222.5C 332.865,221.886 329.198,221.552 325.5,221.5C 332.465,213.2 339.798,205.2 347.5,197.5 Z"/></g>
<g><path style="opacity:0.957" fill="#1f1d1f" d="M 524.5,195.5 C 524.649,196.552 524.483,197.552 524,198.5C 521.561,200.629 519.061,202.629 516.5,204.5C 515.833,204.5 515.5,204.167 515.5,203.5C 518.5,200.833 521.5,198.167 524.5,195.5 Z"/></g>
<g><path style="opacity:0.948" fill="#fafafa" d="M 269.5,209.5 C 269.631,210.239 269.464,210.906 269,211.5C 251.602,229.399 233.769,246.733 215.5,263.5C 218.497,256.841 222.497,250.841 227.5,245.5C 237.527,236.14 246.861,226.806 255.5,217.5C 259.833,214.331 264.5,211.664 269.5,209.5 Z"/></g>
<g><path style="opacity:0.957" fill="#f4f3f4" d="M 117.5,214.5 C 110.188,226.232 104.688,238.899 101,252.5C 96.4777,260.866 93.3111,269.866 91.5,279.5C 81.5323,288.133 71.8656,297.133 62.5,306.5C 63.7654,287.506 67.4321,269.172 73.5,251.5C 74.8315,248.874 76.1648,246.207 77.5,243.5C 92.5535,228.779 107.553,214.112 122.5,199.5C 123.458,199.047 124.292,198.381 125,197.5C 125.167,197.833 125.333,198.167 125.5,198.5C 122.169,202.492 119.336,206.825 117,211.5C 113.167,215.333 109.333,219.167 105.5,223C 106.167,223.667 106.833,223.667 107.5,223C 110.432,219.558 113.765,216.725 117.5,214.5 Z"/></g>
<g><path style="opacity:0.857" fill="#4a464a" d="M 524.5,195.5 C 528.167,200.833 531.833,206.167 535.5,211.5C 538.167,216.833 540.833,222.167 543.5,227.5C 543.67,228.822 543.337,229.989 542.5,231C 543.624,231.249 544.624,231.749 545.5,232.5C 542.811,235.52 540.144,238.52 537.5,241.5C 529.73,229.63 522.73,217.296 516.5,204.5C 519.061,202.629 521.561,200.629 524,198.5C 524.483,197.552 524.649,196.552 524.5,195.5 Z"/></g>
<g><path style="opacity:0.92" fill="#f7f6f7" d="M 399.5,218.5 C 410.154,226.155 419.488,235.155 427.5,245.5C 421.548,251.391 415.715,257.391 410,263.5C 409.329,262.748 408.496,262.414 407.5,262.5C 399.767,252.432 390.767,243.766 380.5,236.5C 386.833,230.5 393.167,224.5 399.5,218.5 Z"/></g>
<g><path style="opacity:1" fill="#605c61" d="M 318.5,222.5 C 320.607,221.532 322.941,221.198 325.5,221.5C 329.198,221.552 332.865,221.886 336.5,222.5C 333.5,225.833 330.5,229.167 327.5,232.5C 326.292,231.766 324.959,231.433 323.5,231.5C 325.962,228.536 328.629,225.703 331.5,223C 328.538,222.91 326.204,224.243 324.5,227C 322.833,227.667 321.167,227.667 319.5,227C 320.833,225.667 322.167,224.333 323.5,223C 321.866,222.506 320.199,222.34 318.5,222.5 Z"/></g>
<g><path style="opacity:0.982" fill="#615d61" d="M 312.5,222.5 C 309.122,225.876 306.122,229.543 303.5,233.5C 301.097,233.448 298.764,233.781 296.5,234.5C 298.122,231.71 300.288,229.377 303,227.5C 303.667,226.833 303.667,226.167 303,225.5C 300.356,227.31 297.856,229.31 295.5,231.5C 294.431,230.09 293.097,229.09 291.5,228.5C 297.936,225.135 304.936,223.135 312.5,222.5 Z"/></g>
<g><path style="opacity:0.28" fill="#4a464a" d="M 312.5,222.5 C 314.5,222.5 316.5,222.5 318.5,222.5C 320.199,222.34 321.866,222.506 323.5,223C 322.167,224.333 320.833,225.667 319.5,227C 321.167,227.667 322.833,227.667 324.5,227C 326.204,224.243 328.538,222.91 331.5,223C 328.629,225.703 325.962,228.536 323.5,231.5C 316.717,231.201 310.051,231.867 303.5,233.5C 306.122,229.543 309.122,225.876 312.5,222.5 Z"/></g>
<g><path style="opacity:0.737" fill="#504b50" d="M 336.5,222.5 C 347.82,223.687 358.487,226.687 368.5,231.5C 365.167,234.167 362.167,237.167 359.5,240.5C 353.869,238.07 348.203,236.07 342.5,234.5C 346.287,232.548 349.287,229.714 351.5,226C 347.519,227.794 344.186,230.627 341.5,234.5C 336.763,234.049 332.097,233.382 327.5,232.5C 330.5,229.167 333.5,225.833 336.5,222.5 Z"/></g>
<g><path style="opacity:1" fill="#c1bfc1" d="M 255.5,217.5 C 246.861,226.806 237.527,236.14 227.5,245.5C 227.5,244.5 227.5,243.5 227.5,242.5C 235.617,232.712 244.95,224.378 255.5,217.5 Z"/></g>
<g><path style="opacity:0.969" fill="#8c8a8d" d="M 122.5,162.5 C 120.716,164.948 119.382,167.615 118.5,170.5C 112.731,176.601 107.731,183.268 103.5,190.5C 102.069,192.437 100.402,194.27 98.5,196C 98.9574,196.414 99.2907,196.914 99.5,197.5C 95.0335,203.441 91.3669,209.775 88.5,216.5C 86.5617,220.043 84.8951,223.71 83.5,227.5C 80.937,232.51 78.937,237.843 77.5,243.5C 76.1648,246.207 74.8315,248.874 73.5,251.5C 73.8146,249.774 73.9813,248.107 74,246.5C 72.9505,247.517 71.7839,247.684 70.5,247C 72.4773,243.296 74.8106,239.796 77.5,236.5C 74.942,235.782 74.2753,234.449 75.5,232.5C 78.9715,224.886 82.4715,217.219 86,209.5C 91.3292,203.516 95.6625,196.849 99,189.5C 106.698,180.307 114.532,171.307 122.5,162.5 Z"/></g>
<g><path style="opacity:0.973" fill="#2b2629" d="M 342.5,234.5 C 342.167,234.5 341.833,234.5 341.5,234.5C 344.186,230.627 347.519,227.794 351.5,226C 349.287,229.714 346.287,232.548 342.5,234.5 Z"/></g>
<g><path style="opacity:0.542" fill="#575357" d="M 296.5,234.5 C 288.298,236.289 280.298,238.789 272.5,242C 267.215,246.147 261.548,249.647 255.5,252.5C 258.167,249.5 260.833,246.5 263.5,243.5C 271.112,238.537 278.779,233.871 286.5,229.5C 288.042,228.699 289.708,228.366 291.5,228.5C 293.097,229.09 294.431,230.09 295.5,231.5C 297.856,229.31 300.356,227.31 303,225.5C 303.667,226.167 303.667,226.833 303,227.5C 300.288,229.377 298.122,231.71 296.5,234.5 Z"/></g>
<g><path style="opacity:1" fill="#2a2427" d="M 368.5,231.5 C 368.833,231.5 369.167,231.5 369.5,231.5C 366.805,234.526 364.138,237.526 361.5,240.5C 360.833,240.5 360.167,240.5 359.5,240.5C 362.167,237.167 365.167,234.167 368.5,231.5 Z"/></g>
<g><path style="opacity:0.043" fill="#282325" d="M 371.5,247.5 C 370.5,247.167 369.833,246.5 369.5,245.5C 372.48,242.856 375.48,240.189 378.5,237.5C 379.521,238.002 379.688,238.668 379,239.5C 375.646,241.414 373.146,244.081 371.5,247.5 Z"/></g>
<g><path style="opacity:0.923" fill="#f5f4f5" d="M 427.5,245.5 C 431.091,251.018 434.924,256.352 439,261.5C 442.675,268.516 445.509,275.849 447.5,283.5C 440.57,288.926 434.07,294.926 428,301.5C 427.333,303.5 427.333,305.5 428,307.5C 432.311,305.077 432.478,305.41 428.5,308.5C 426.247,302.524 424.414,296.191 423,289.5C 422.148,288.429 421.315,287.429 420.5,286.5C 420.267,283.458 419.267,280.792 417.5,278.5C 414.68,272.863 411.347,267.53 407.5,262.5C 408.496,262.414 409.329,262.748 410,263.5C 415.715,257.391 421.548,251.391 427.5,245.5 Z"/></g>
<g><path style="opacity:1" fill="#443f44" d="M 369.5,231.5 C 373.327,232.99 376.994,234.657 380.5,236.5C 390.767,243.766 399.767,252.432 407.5,262.5C 411.347,267.53 414.68,272.863 417.5,278.5C 414.167,281.5 410.833,284.5 407.5,287.5C 405.872,282.91 403.705,278.577 401,274.5C 396.987,270.485 393.321,266.152 390,261.5C 384.431,255.974 378.265,251.307 371.5,247.5C 373.146,244.081 375.646,241.414 379,239.5C 379.688,238.668 379.521,238.002 378.5,237.5C 375.48,240.189 372.48,242.856 369.5,245.5C 366.833,243.833 364.167,242.167 361.5,240.5C 364.138,237.526 366.805,234.526 369.5,231.5 Z"/></g>
<g><path style="opacity:1" fill="#a0999b" d="M 263.5,243.5 C 260.833,246.5 258.167,249.5 255.5,252.5C 254.167,254.5 252.5,256.167 250.5,257.5C 248.983,257.511 247.816,258.177 247,259.5C 246.601,259.272 246.435,258.938 246.5,258.5C 251.872,253.476 257.039,248.143 262,242.5C 262.383,243.056 262.883,243.389 263.5,243.5 Z"/></g>
<g><path style="opacity:0.004" fill="#ceccce" d="M 250.5,257.5 C 246.327,262.523 242.66,267.856 239.5,273.5C 238.637,274.463 237.97,274.463 237.5,273.5C 239.601,270.632 241.101,267.632 242,264.5C 240.296,266.373 238.463,268.04 236.5,269.5C 238.797,265.503 242.131,261.837 246.5,258.5C 246.435,258.938 246.601,259.272 247,259.5C 247.816,258.177 248.983,257.511 250.5,257.5 Z"/></g>
<g><path style="opacity:0.94" fill="#f6f5f7" d="M 582.5,258.5 C 584.926,264.531 586.592,270.864 587.5,277.5C 581.73,283.771 575.73,289.938 569.5,296C 568.552,296.483 567.552,296.649 566.5,296.5C 566.737,295.209 566.404,294.209 565.5,293.5C 564.523,287.414 563.189,281.414 561.5,275.5C 562.15,275.804 562.817,276.137 563.5,276.5C 570.504,271.161 576.838,265.161 582.5,258.5 Z"/></g>
<g><path style="opacity:0.584" fill="#5a575b" d="M 543.5,227.5 C 550.128,239.437 555.128,252.104 558.5,265.5C 557.681,270.585 558.681,275.419 561.5,280C 559.181,282.989 556.847,285.989 554.5,289C 555.025,289.692 555.692,290.192 556.5,290.5C 558.817,288.684 560.984,286.684 563,284.5C 561.622,289.074 558.789,292.741 554.5,295.5C 553.633,287.738 551.467,280.404 548,273.5C 544.798,262.726 541.298,252.059 537.5,241.5C 540.144,238.52 542.811,235.52 545.5,232.5C 544.624,231.749 543.624,231.249 542.5,231C 543.337,229.989 543.67,228.822 543.5,227.5 Z"/></g>
<g><path style="opacity:0.892" fill="#f4f4f5" d="M 239.5,273.5 C 236.884,280.734 233.717,287.734 230,294.5C 228.11,300.015 227.276,305.681 227.5,311.5C 218.922,318.574 210.755,326.24 203,334.5C 202.082,337.063 202.582,339.23 204.5,341C 203.577,343.041 203.244,345.208 203.5,347.5C 201.092,338.457 200.092,329.124 200.5,319.5C 200.98,313.809 201.646,308.142 202.5,302.5C 213.86,291.473 225.193,280.473 236.5,269.5C 238.463,268.04 240.296,266.373 242,264.5C 241.101,267.632 239.601,270.632 237.5,273.5C 237.97,274.463 238.637,274.463 239.5,273.5 Z"/></g>
<g><path style="opacity:1" fill="#332e31" d="M 417.5,278.5 C 417.649,279.552 417.483,280.552 417,281.5C 414.295,284.036 411.795,286.703 409.5,289.5C 408.5,289.167 407.833,288.5 407.5,287.5C 410.833,284.5 414.167,281.5 417.5,278.5 Z"/></g>
<g><path style="opacity:1" fill="#545154" d="M 417.5,278.5 C 419.267,280.792 420.267,283.458 420.5,286.5C 420.579,287.93 420.246,289.264 419.5,290.5C 419.938,291.506 420.604,291.506 421.5,290.5C 422.521,291.002 422.688,291.668 422,292.5C 419.584,295.423 416.75,297.757 413.5,299.5C 412.883,299.389 412.383,299.056 412,298.5C 411.599,295.301 410.766,292.301 409.5,289.5C 411.795,286.703 414.295,284.036 417,281.5C 417.483,280.552 417.649,279.552 417.5,278.5 Z"/></g>
<g><path style="opacity:0.914" fill="#f6f5f6" d="M 91.5,279.5 C 89.0042,296.798 87.0042,314.131 85.5,331.5C 79.4011,338.109 72.7344,344.942 65.5,352C 64.2068,352.49 62.8734,352.657 61.5,352.5C 60.6388,340.856 60.3054,329.19 60.5,317.5C 61.5249,314.026 62.1916,310.36 62.5,306.5C 71.8656,297.133 81.5323,288.133 91.5,279.5 Z"/></g>
<g><path style="opacity:0.948" fill="#f6f6f7" d="M 447.5,283.5 C 450.298,294.013 452.298,304.68 453.5,315.5C 446.397,323.105 439.063,330.605 431.5,338C 429.548,338.366 427.882,339.199 426.5,340.5C 428.368,330.301 429.035,319.968 428.5,309.5C 428.5,309.167 428.5,308.833 428.5,308.5C 432.478,305.41 432.311,305.077 428,307.5C 427.333,305.5 427.333,303.5 428,301.5C 434.07,294.926 440.57,288.926 447.5,283.5 Z"/></g>
<g><path style="opacity:1" fill="#6d6a6e" d="M 558.5,265.5 C 559.489,268.726 560.489,272.06 561.5,275.5C 563.189,281.414 564.523,287.414 565.5,293.5C 568.133,310.384 569.133,327.384 568.5,344.5C 565.913,348.758 562.58,352.425 558.5,355.5C 559.125,351.006 559.791,346.506 560.5,342C 558.554,326.42 556.554,310.92 554.5,295.5C 558.789,292.741 561.622,289.074 563,284.5C 560.984,286.684 558.817,288.684 556.5,290.5C 555.692,290.192 555.025,289.692 554.5,289C 556.847,285.989 559.181,282.989 561.5,280C 558.681,275.419 557.681,270.585 558.5,265.5 Z"/></g>
<g><path style="opacity:0.433" fill="#828083" d="M 227.5,242.5 C 227.5,243.5 227.5,244.5 227.5,245.5C 222.497,250.841 218.497,256.841 215.5,263.5C 213.011,268.642 210.344,273.809 207.5,279C 208.056,279.383 208.389,279.883 208.5,280.5C 206.94,282.954 205.94,285.62 205.5,288.5C 203.717,292.886 202.717,297.553 202.5,302.5C 201.646,308.142 200.98,313.809 200.5,319.5C 198.126,322.874 195.126,325.541 191.5,327.5C 192.439,321.765 192.606,315.765 192,309.5C 195.382,297.312 199.382,285.312 204,273.5C 208.696,267.124 213.03,260.457 217,253.5C 220.055,249.376 223.555,245.709 227.5,242.5 Z"/></g>
<g><path style="opacity:0.907" fill="#f6f5f6" d="M 587.5,277.5 C 587.576,281.229 588.743,284.562 591,287.5C 592.165,296.162 593.332,304.828 594.5,313.5C 593.446,324.703 593.446,336.37 594.5,348.5C 593.616,355.913 592.449,363.246 591,370.5C 590.333,371.167 589.667,371.833 589,372.5C 586.622,383.538 583.455,394.205 579.5,404.5C 564.748,421.587 548.748,437.253 531.5,451.5C 534.113,446.609 536.446,441.609 538.5,436.5C 552.264,410.364 562.097,383.031 568,354.5C 568.498,351.183 568.665,347.85 568.5,344.5C 569.133,327.384 568.133,310.384 565.5,293.5C 566.404,294.209 566.737,295.209 566.5,296.5C 567.552,296.649 568.552,296.483 569.5,296C 575.73,289.938 581.73,283.771 587.5,277.5 Z"/></g>
<g><path style="opacity:1" fill="#656266" d="M 420.5,286.5 C 421.315,287.429 422.148,288.429 423,289.5C 424.414,296.191 426.247,302.524 428.5,308.5C 428.5,308.833 428.5,309.167 428.5,309.5C 427.542,309.953 426.708,310.619 426,311.5C 425.096,314.398 423.762,317.064 422,319.5C 420.989,320.337 419.822,320.67 418.5,320.5C 418.193,313.292 416.526,306.292 413.5,299.5C 416.75,297.757 419.584,295.423 422,292.5C 422.688,291.668 422.521,291.002 421.5,290.5C 420.604,291.506 419.938,291.506 419.5,290.5C 420.246,289.264 420.579,287.93 420.5,286.5 Z"/></g>
<g><path style="opacity:0.848" fill="#7f7c80" d="M 75.5,232.5 C 74.2753,234.449 74.942,235.782 77.5,236.5C 74.8106,239.796 72.4773,243.296 70.5,247C 71.7839,247.684 72.9505,247.517 74,246.5C 73.9813,248.107 73.8146,249.774 73.5,251.5C 67.4321,269.172 63.7654,287.506 62.5,306.5C 62.1916,310.36 61.5249,314.026 60.5,317.5C 58.7768,316.193 56.9435,316.193 55,317.5C 54.8333,317 54.6667,316.5 54.5,316C 56.1122,313.384 58.1122,311.05 60.5,309C 60.1667,308.833 59.8333,308.667 59.5,308.5C 56.8136,310.856 54.147,313.189 51.5,315.5C 52.8501,305.49 54.3501,295.49 56,285.5C 57.3161,284.026 58.3161,282.359 59,280.5C 62.4375,264.42 67.2708,248.754 73.5,233.5C 73.9569,232.702 74.6236,232.369 75.5,232.5 Z"/></g>
<g><path style="opacity:0.944" fill="#f7f6f7" d="M 227.5,311.5 C 226.08,315.348 225.413,319.348 225.5,323.5C 226.527,329.734 227.194,335.734 227.5,341.5C 222.731,346.771 217.731,351.938 212.5,357C 210.372,357.655 208.372,358.489 206.5,359.5C 205.511,355.514 204.511,351.514 203.5,347.5C 203.244,345.208 203.577,343.041 204.5,341C 202.582,339.23 202.082,337.063 203,334.5C 210.755,326.24 218.922,318.574 227.5,311.5 Z"/></g>
<g><path style="opacity:0.899" fill="#747175" d="M 428.5,309.5 C 429.035,319.968 428.368,330.301 426.5,340.5C 425.656,343.345 424.99,346.345 424.5,349.5C 423.778,349.082 423.278,348.416 423,347.5C 421.549,349.464 419.716,350.797 417.5,351.5C 418.295,344.853 418.962,338.186 419.5,331.5C 419.373,327.799 419.04,324.132 418.5,320.5C 419.822,320.67 420.989,320.337 422,319.5C 423.762,317.064 425.096,314.398 426,311.5C 426.708,310.619 427.542,309.953 428.5,309.5 Z"/></g>
<g><path style="opacity:0.926" fill="#f3f3f4" d="M 453.5,315.5 C 454.014,317.617 454.347,319.784 454.5,322C 453.336,328.816 452.336,335.65 451.5,342.5C 439.722,353.777 428.056,365.277 416.5,377C 415.207,377.49 413.873,377.657 412.5,377.5C 418.606,369.088 422.606,359.755 424.5,349.5C 424.99,346.345 425.656,343.345 426.5,340.5C 427.882,339.199 429.548,338.366 431.5,338C 439.063,330.605 446.397,323.105 453.5,315.5 Z"/></g>
<g><path style="opacity:0.916" fill="#f6f5f6" d="M 85.5,331.5 C 85.0968,338.603 86.0968,345.436 88.5,352C 87.944,352.383 87.6107,352.883 87.5,353.5C 81.1078,360.894 74.1078,367.561 66.5,373.5C 65.0735,371.852 64.2401,369.852 64,367.5C 63.5711,362.388 62.7378,357.388 61.5,352.5C 62.8734,352.657 64.2068,352.49 65.5,352C 72.7344,344.942 79.4011,338.109 85.5,331.5 Z"/></g>
<g><path style="opacity:0.981" fill="#f2f1f3" d="M 451.5,342.5 C 450.992,346.197 450.326,349.864 449.5,353.5C 419.644,381.854 390.144,410.854 361,440.5C 360.308,441.437 360.475,442.103 361.5,442.5C 351.19,445.605 340.523,447.272 329.5,447.5C 338.556,438.447 347.223,429.114 355.5,419.5C 364.922,417.455 373.256,413.289 380.5,407C 382.154,406.392 383.821,405.892 385.5,405.5C 382.538,408.964 379.371,412.297 376,415.5C 375.333,416.167 375.333,416.833 376,417.5C 381.703,411.965 387.203,406.298 392.5,400.5C 397.798,395.703 402.965,390.703 408,385.5C 408.617,384.551 408.451,383.718 407.5,383C 409.402,381.27 411.069,379.437 412.5,377.5C 413.873,377.657 415.207,377.49 416.5,377C 428.056,365.277 439.722,353.777 451.5,342.5 Z"/></g>
<g><path style="opacity:0.371" fill="#676468" d="M 200.5,319.5 C 200.092,329.124 201.092,338.457 203.5,347.5C 204.511,351.514 205.511,355.514 206.5,359.5C 207.958,362.327 208.958,365.327 209.5,368.5C 207.774,368.815 206.107,368.981 204.5,369C 206.576,367.116 206.91,364.949 205.5,362.5C 202.814,364.856 200.147,367.189 197.5,369.5C 196.093,362.014 194.093,354.681 191.5,347.5C 192.69,341.633 192.023,335.966 189.5,330.5C 190.193,329.482 190.859,328.482 191.5,327.5C 195.126,325.541 198.126,322.874 200.5,319.5 Z"/></g>
<g><path style="opacity:0.939" fill="#f5f4f5" d="M 227.5,341.5 C 228.363,347.881 230.363,354.214 233.5,360.5C 227.535,365.964 221.702,371.63 216,377.5C 215.517,378.448 215.351,379.448 215.5,380.5C 213.315,376.623 211.315,372.623 209.5,368.5C 208.958,365.327 207.958,362.327 206.5,359.5C 208.372,358.489 210.372,357.655 212.5,357C 217.731,351.938 222.731,346.771 227.5,341.5 Z"/></g>
<g><path style="opacity:0.978" fill="#f4f3f5" d="M 449.5,353.5 C 448.49,356.928 447.49,360.261 446.5,363.5C 421.548,387.785 396.881,412.452 372.5,437.5C 372.624,438.107 372.957,438.44 373.5,438.5C 369.735,440.2 365.735,441.533 361.5,442.5C 360.475,442.103 360.308,441.437 361,440.5C 390.144,410.854 419.644,381.854 449.5,353.5 Z"/></g>
<g><path style="opacity:0.952" fill="#f7f6f7" d="M 446.5,363.5 C 446.172,368.467 444.506,372.8 441.5,376.5C 441.565,376.062 441.399,375.728 441,375.5C 438.167,378.333 435.333,381.167 432.5,384C 433.167,384.667 433.833,384.667 434.5,384C 436.703,381.628 439.037,379.461 441.5,377.5C 436.83,384.841 432.164,392.175 427.5,399.5C 428.028,398.153 428.195,396.819 428,395.5C 422.956,401.039 418.123,406.706 413.5,412.5C 401.985,424.025 388.651,432.691 373.5,438.5C 372.957,438.44 372.624,438.107 372.5,437.5C 396.881,412.452 421.548,387.785 446.5,363.5 Z"/></g>
<g><path style="opacity:0.793" fill="#5e5c60" d="M 55.5,379.5 C 53.9479,374.355 52.6145,369.022 51.5,363.5C 54.2243,361.283 56.891,358.783 59.5,356C 60.1667,355.333 60.8333,355.333 61.5,356C 59.9262,357.826 59.0929,359.993 59,362.5C 57.647,363.685 56.4803,365.019 55.5,366.5C 56.0016,367.521 56.6683,367.688 57.5,367C 62.3724,359.253 63.539,359.753 61,368.5C 60.5,369 60,369.5 59.5,370C 60.8333,370 62.1667,370 63.5,370C 60.9983,373.333 58.3316,376.499 55.5,379.5 Z"/></g>
<g><path style="opacity:0.734" fill="#565256" d="M 209.5,368.5 C 211.315,372.623 213.315,376.623 215.5,380.5C 215.557,381.609 215.89,382.609 216.5,383.5C 210.182,386.683 209.182,385.517 213.5,380C 209.857,381.455 206.857,383.955 204.5,387.5C 201.794,381.728 199.461,375.728 197.5,369.5C 200.147,367.189 202.814,364.856 205.5,362.5C 206.91,364.949 206.576,367.116 204.5,369C 206.107,368.981 207.774,368.815 209.5,368.5 Z"/></g>
<g><path style="opacity:0.246" fill="#878488" d="M 424.5,349.5 C 422.606,359.755 418.606,369.088 412.5,377.5C 411.069,379.437 409.402,381.27 407.5,383C 408.451,383.718 408.617,384.551 408,385.5C 402.965,390.703 397.798,395.703 392.5,400.5C 392.167,400.5 391.833,400.5 391.5,400.5C 394.831,397 397.998,393.334 401,389.5C 407.369,377.107 412.869,364.44 417.5,351.5C 419.716,350.797 421.549,349.464 423,347.5C 423.278,348.416 423.778,349.082 424.5,349.5 Z"/></g>
<g><path style="opacity:0.921" fill="#f6f5f6" d="M 233.5,360.5 C 240.979,378.659 252.646,393.659 268.5,405.5C 264.036,409.463 259.702,413.63 255.5,418C 253.073,418.627 251.073,419.794 249.5,421.5C 247.116,419.115 244.45,417.115 241.5,415.5C 240.5,413.833 239.167,412.5 237.5,411.5C 229.504,402.809 222.504,393.476 216.5,383.5C 215.89,382.609 215.557,381.609 215.5,380.5C 215.351,379.448 215.517,378.448 216,377.5C 221.702,371.63 227.535,365.964 233.5,360.5 Z"/></g>
<g><path style="opacity:0.852" fill="#6f6b6f" d="M 60.5,317.5 C 60.3054,329.19 60.6388,340.856 61.5,352.5C 62.7378,357.388 63.5711,362.388 64,367.5C 64.2401,369.852 65.0735,371.852 66.5,373.5C 66.5,375.833 66.5,378.167 66.5,380.5C 65.5222,380.189 64.8555,379.522 64.5,378.5C 65.4279,377.232 65.5946,375.899 65,374.5C 61.9641,377.704 58.7974,380.704 55.5,383.5C 55.5,382.167 55.5,380.833 55.5,379.5C 58.3316,376.499 60.9983,373.333 63.5,370C 62.1667,370 60.8333,370 59.5,370C 60,369.5 60.5,369 61,368.5C 63.539,359.753 62.3724,359.253 57.5,367C 56.6683,367.688 56.0016,367.521 55.5,366.5C 56.4803,365.019 57.647,363.685 59,362.5C 59.0929,359.993 59.9262,357.826 61.5,356C 60.8333,355.333 60.1667,355.333 59.5,356C 56.891,358.783 54.2243,361.283 51.5,363.5C 51.5,347.5 51.5,331.5 51.5,315.5C 54.147,313.189 56.8136,310.856 59.5,308.5C 59.8333,308.667 60.1667,308.833 60.5,309C 58.1122,311.05 56.1122,313.384 54.5,316C 54.6667,316.5 54.8333,317 55,317.5C 56.9435,316.193 58.7768,316.193 60.5,317.5 Z"/></g>
<g><path style="opacity:0.679" fill="#838084" d="M 568.5,344.5 C 568.665,347.85 568.498,351.183 568,354.5C 562.097,383.031 552.264,410.364 538.5,436.5C 536.958,437.301 535.292,437.634 533.5,437.5C 532.159,442.69 530.326,447.69 528,452.5C 526.989,453.337 525.822,453.67 524.5,453.5C 526.683,446.134 530.183,439.467 535,433.5C 541.986,414.852 548.653,396.186 555,377.5C 556.499,370.085 557.665,362.752 558.5,355.5C 562.58,352.425 565.913,348.758 568.5,344.5 Z"/></g>
<g><path style="opacity:0.929" fill="#f5f4f6" d="M 87.5,353.5 C 89.483,365.896 92.3163,378.23 96,390.5C 98.8308,394.486 100.997,398.82 102.5,403.5C 96.2019,409.297 90.0352,415.297 84,421.5C 83.5172,422.448 83.3505,423.448 83.5,424.5C 83.1667,424.5 82.8333,424.5 82.5,424.5C 82.5,423.833 82.5,423.167 82.5,422.5C 79.3763,415.67 76.7096,408.67 74.5,401.5C 72.8082,396.425 71.1415,391.425 69.5,386.5C 68.5,384.5 67.5,382.5 66.5,380.5C 66.5,378.167 66.5,375.833 66.5,373.5C 74.1078,367.561 81.1078,360.894 87.5,353.5 Z"/></g>
<g><path style="opacity:0.275" fill="#c2bfc3" d="M 441.5,376.5 C 441.5,376.833 441.5,377.167 441.5,377.5C 439.037,379.461 436.703,381.628 434.5,384C 433.833,384.667 433.167,384.667 432.5,384C 435.333,381.167 438.167,378.333 441,375.5C 441.399,375.728 441.565,376.062 441.5,376.5 Z"/></g>
<g><path style="opacity:1" fill="#595559" d="M 66.5,380.5 C 67.5,382.5 68.5,384.5 69.5,386.5C 69.601,392.137 71.2677,397.137 74.5,401.5C 76.7096,408.67 79.3763,415.67 82.5,422.5C 78.562,425.098 74.8953,428.098 71.5,431.5C 66.3496,415.382 61.0163,399.382 55.5,383.5C 58.7974,380.704 61.9641,377.704 65,374.5C 65.5946,375.899 65.4279,377.232 64.5,378.5C 64.8555,379.522 65.5222,380.189 66.5,380.5 Z"/></g>
<g><path style="opacity:0.997" fill="#433f43" d="M 216.5,383.5 C 222.504,393.476 229.504,402.809 237.5,411.5C 233.897,413.763 230.564,416.43 227.5,419.5C 223.28,414.895 218.946,410.395 214.5,406C 215.451,405.282 215.617,404.449 215,403.5C 210.733,398.623 207.233,393.29 204.5,387.5C 206.857,383.955 209.857,381.455 213.5,380C 209.182,385.517 210.182,386.683 216.5,383.5 Z"/></g>
<g><path style="opacity:0.004" fill="#3b393b" d="M 58.5,397.5 C 59.8333,398.167 59.8333,398.167 58.5,397.5 Z"/></g>
<g><path style="opacity:1" fill="#9f999b" d="M 69.5,386.5 C 71.1415,391.425 72.8082,396.425 74.5,401.5C 71.2677,397.137 69.601,392.137 69.5,386.5 Z"/></g>
<g><path style="opacity:1" fill="#b8b3b9" d="M 391.5,400.5 C 391.833,400.5 392.167,400.5 392.5,400.5C 387.203,406.298 381.703,411.965 376,417.5C 375.333,416.833 375.333,416.167 376,415.5C 379.371,412.297 382.538,408.964 385.5,405.5C 387.46,403.844 389.46,402.177 391.5,400.5 Z"/></g>
<g><path style="opacity:0.925" fill="#f1f0f2" d="M 579.5,404.5 C 578.601,412.285 575.601,418.952 570.5,424.5C 553.53,440.136 536.863,456.136 520.5,472.5C 523.93,465.304 527.597,458.304 531.5,451.5C 548.748,437.253 564.748,421.587 579.5,404.5 Z"/></g>
<g><path style="opacity:0.921" fill="#f5f5f6" d="M 268.5,405.5 C 274.203,408.438 279.703,411.771 285,415.5C 285.333,415.167 285.667,414.833 286,414.5C 287.684,416.701 289.684,417.367 292,416.5C 293.684,418.701 295.684,419.367 298,418.5C 301.951,421.421 305.951,422.088 310,420.5C 313.422,422.254 317.089,423.254 321,423.5C 324.683,422.798 328.516,422.798 332.5,423.5C 340.208,422.352 347.875,421.018 355.5,419.5C 347.223,429.114 338.556,438.447 329.5,447.5C 323.137,447.593 316.804,447.26 310.5,446.5C 302.325,445.598 294.325,443.932 286.5,441.5C 286.167,441.5 285.833,441.5 285.5,441.5C 284.167,440.833 282.833,440.167 281.5,439.5C 280.833,439.5 280.167,439.5 279.5,439.5C 270.763,435.63 262.43,430.963 254.5,425.5C 254.167,425.5 253.833,425.5 253.5,425.5C 252.473,423.806 251.139,422.473 249.5,421.5C 251.073,419.794 253.073,418.627 255.5,418C 259.702,413.63 264.036,409.463 268.5,405.5 Z"/></g>
<g><path style="opacity:0.859" fill="#aba5a8" d="M 427.5,399.5 C 423.52,405.113 418.854,410.113 413.5,414.5C 413.5,413.833 413.5,413.167 413.5,412.5C 418.123,406.706 422.956,401.039 428,395.5C 428.195,396.819 428.028,398.153 427.5,399.5 Z"/></g>
<g><path style="opacity:0.917" fill="#f6f5f6" d="M 102.5,403.5 C 103.152,406.926 104.485,410.092 106.5,413C 106.167,413.333 105.833,413.667 105.5,414C 106.364,416.071 107.697,417.738 109.5,419C 109.86,425.238 112.36,430.738 117,435.5C 120.345,445.488 124.511,454.488 129.5,462.5C 129.5,462.833 129.5,463.167 129.5,463.5C 124.702,467.797 120.035,472.297 115.5,477C 113.922,478.094 112.255,478.928 110.5,479.5C 105.136,469.434 99.8024,459.434 94.5,449.5C 90.3229,441.399 86.6562,433.066 83.5,424.5C 83.3505,423.448 83.5172,422.448 84,421.5C 90.0352,415.297 96.2019,409.297 102.5,403.5 Z"/></g>
<g><path style="opacity:1" fill="#504b50" d="M 237.5,411.5 C 239.167,412.5 240.5,413.833 241.5,415.5C 237.897,417.763 234.564,420.43 231.5,423.5C 230.5,423.167 229.833,422.5 229.5,421.5C 232.57,418.436 235.237,415.103 237.5,411.5 Z"/></g>
<g><path style="opacity:0.114" fill="#282326" d="M 237.5,411.5 C 235.237,415.103 232.57,418.436 229.5,421.5C 228.5,421.167 227.833,420.5 227.5,419.5C 230.564,416.43 233.897,413.763 237.5,411.5 Z"/></g>
<g><path style="opacity:0.802" fill="#464146" d="M 241.5,415.5 C 244.45,417.115 247.116,419.115 249.5,421.5C 251.139,422.473 252.473,423.806 253.5,425.5C 250.833,428.5 248.167,431.5 245.5,434.5C 241.183,431.514 237.183,428.18 233.5,424.5C 236.881,422.12 239.547,419.12 241.5,415.5 Z"/></g>
<g><path style="opacity:0.098" fill="#282326" d="M 241.5,415.5 C 239.547,419.12 236.881,422.12 233.5,424.5C 232.508,424.672 231.842,424.338 231.5,423.5C 234.564,420.43 237.897,417.763 241.5,415.5 Z"/></g>
<g><path style="opacity:0.972" fill="#f6f6f7" d="M 570.5,424.5 C 568.888,431.985 566.222,438.985 562.5,445.5C 543.012,465.971 521.678,486.971 498.5,508.5C 504.966,496.023 512.3,484.023 520.5,472.5C 536.863,456.136 553.53,440.136 570.5,424.5 Z"/></g>
<g><path style="opacity:1" fill="#3a3637" d="M 82.5,422.5 C 82.5,423.167 82.5,423.833 82.5,424.5C 79.1667,427.167 76.1667,430.167 73.5,433.5C 72.5,433.167 71.8333,432.5 71.5,431.5C 74.8953,428.098 78.562,425.098 82.5,422.5 Z"/></g>
<g><path style="opacity:1" fill="#282327" d="M 253.5,425.5 C 253.833,425.5 254.167,425.5 254.5,425.5C 253.005,429.673 250.338,433.006 246.5,435.5C 246.5,434.833 246.167,434.5 245.5,434.5C 248.167,431.5 250.833,428.5 253.5,425.5 Z"/></g>
<g><path style="opacity:0.984" fill="#4c494b" d="M 79.5,443.5 C 77.659,441.151 76.3257,438.485 75.5,435.5C 78.147,433.189 80.8136,430.856 83.5,428.5C 84.9097,430.949 84.5763,433.116 82.5,435C 83.9506,434.737 85.2839,434.904 86.5,435.5C 84.1442,438.186 81.8109,440.853 79.5,443.5 Z"/></g>
<g><path style="opacity:1" fill="#302e30" d="M 81.5,449.5 C 80.596,448.791 80.2627,447.791 80.5,446.5C 82.9635,444.539 85.2968,442.372 87.5,440C 88.3317,439.312 88.9984,439.479 89.5,440.5C 86.811,443.52 84.1444,446.52 81.5,449.5 Z"/></g>
<g><path style="opacity:0.564" fill="#4a464a" d="M 254.5,425.5 C 262.43,430.963 270.763,435.63 279.5,439.5C 276.833,442.5 274.167,445.5 271.5,448.5C 263.621,445.562 255.954,442.062 248.5,438C 247.619,437.292 246.953,436.458 246.5,435.5C 250.338,433.006 253.005,429.673 254.5,425.5 Z"/></g>
<g><path style="opacity:1" fill="#2d292c" d="M 279.5,439.5 C 280.167,439.5 280.833,439.5 281.5,439.5C 279.57,443.1 276.903,446.1 273.5,448.5C 272.833,448.5 272.167,448.5 271.5,448.5C 274.167,445.5 276.833,442.5 279.5,439.5 Z"/></g>
<g><path style="opacity:1" fill="#5b575a" d="M 281.5,439.5 C 282.833,440.167 284.167,440.833 285.5,441.5C 282.833,444.5 280.167,447.5 277.5,450.5C 276.005,450.011 274.671,449.345 273.5,448.5C 276.903,446.1 279.57,443.1 281.5,439.5 Z"/></g>
<g><path style="opacity:1" fill="#201c1f" d="M 285.5,441.5 C 285.833,441.5 286.167,441.5 286.5,441.5C 284.573,444.767 282.239,447.767 279.5,450.5C 278.833,450.5 278.167,450.5 277.5,450.5C 280.167,447.5 282.833,444.5 285.5,441.5 Z"/></g>
<g><path style="opacity:0.927" fill="#ecebee" d="M 562.5,445.5 C 560.767,452.042 557.601,457.709 553,462.5C 552.79,464.058 552.29,465.391 551.5,466.5C 528.194,489.473 504.86,512.473 481.5,535.5C 481.351,534.448 481.517,533.448 482,532.5C 487.797,524.529 493.297,516.529 498.5,508.5C 521.678,486.971 543.012,465.971 562.5,445.5 Z"/></g>
<g><path style="opacity:0.894" fill="#2f2f2f" d="M 360.5,449.5 C 360.158,450.338 359.492,450.672 358.5,450.5C 360.131,446.696 362.798,444.196 366.5,443C 364.294,445.037 362.294,447.203 360.5,449.5 Z"/></g>
<g><path style="opacity:0.831" fill="#5e5b5f" d="M 413.5,412.5 C 413.5,413.167 413.5,413.833 413.5,414.5C 403.983,424.263 393.649,433.096 382.5,441C 375.327,444.334 367.994,447.167 360.5,449.5C 362.294,447.203 364.294,445.037 366.5,443C 362.798,444.196 360.131,446.696 358.5,450.5C 358.167,450.5 357.833,450.5 357.5,450.5C 356.167,450.5 354.833,450.5 353.5,450.5C 353.719,449.325 353.386,448.325 352.5,447.5C 350.023,450.315 347.023,452.315 343.5,453.5C 343.167,453.167 342.833,452.833 342.5,452.5C 343.648,450.851 344.981,449.351 346.5,448C 341.579,449.728 337.579,452.894 334.5,457.5C 332.833,457.5 331.167,457.5 329.5,457.5C 331.285,453.88 333.952,451.047 337.5,449C 337,448.833 336.5,448.667 336,448.5C 332.277,450.722 329.443,453.722 327.5,457.5C 324.921,457.865 322.588,457.865 320.5,457.5C 323.479,455.188 326.146,452.521 328.5,449.5C 325.216,448.343 321.882,448.176 318.5,449C 315.553,451.436 313.22,454.269 311.5,457.5C 309.5,457.5 307.5,457.5 305.5,457.5C 308.144,454.52 310.811,451.52 313.5,448.5C 312.398,447.824 311.398,447.158 310.5,446.5C 316.804,447.26 323.137,447.593 329.5,447.5C 340.523,447.272 351.19,445.605 361.5,442.5C 365.735,441.533 369.735,440.2 373.5,438.5C 388.651,432.691 401.985,424.025 413.5,412.5 Z"/></g>
<g><path style="opacity:1" fill="#635d62" d="M 82.5,424.5 C 82.8333,424.5 83.1667,424.5 83.5,424.5C 86.6562,433.066 90.3229,441.399 94.5,449.5C 93.1851,450.476 91.8518,451.476 90.5,452.5C 89.914,452.291 89.414,451.957 89,451.5C 89.9258,449.294 90.5924,446.961 91,444.5C 88.2972,447.371 85.4639,450.038 82.5,452.5C 81.596,451.791 81.2627,450.791 81.5,449.5C 84.1444,446.52 86.811,443.52 89.5,440.5C 88.9984,439.479 88.3317,439.312 87.5,440C 85.2968,442.372 82.9635,444.539 80.5,446.5C 79.596,445.791 79.2627,444.791 79.5,443.5C 81.8109,440.853 84.1442,438.186 86.5,435.5C 85.2839,434.904 83.9506,434.737 82.5,435C 84.5763,433.116 84.9097,430.949 83.5,428.5C 80.8136,430.856 78.147,433.189 75.5,435.5C 74.5,435.167 73.8333,434.5 73.5,433.5C 76.1667,430.167 79.1667,427.167 82.5,424.5 Z"/></g>
<g><path style="opacity:0.499" fill="#4b474b" d="M 286.5,441.5 C 294.325,443.932 302.325,445.598 310.5,446.5C 311.398,447.158 312.398,447.824 313.5,448.5C 310.811,451.52 308.144,454.52 305.5,457.5C 296.581,456.781 287.581,454.947 278.5,452C 279.056,451.617 279.389,451.117 279.5,450.5C 282.239,447.767 284.573,444.767 286.5,441.5 Z"/></g>
<g><path style="opacity:0.694" fill="#4e4a4d" d="M 94.5,449.5 C 99.8024,459.434 105.136,469.434 110.5,479.5C 111.58,481.996 112.914,484.33 114.5,486.5C 110.897,488.763 107.564,491.43 104.5,494.5C 100.182,485.082 95.0149,476.082 89,467.5C 86.8186,462.474 84.6519,457.474 82.5,452.5C 85.4639,450.038 88.2972,447.371 91,444.5C 90.5924,446.961 89.9258,449.294 89,451.5C 89.414,451.957 89.914,452.291 90.5,452.5C 91.8518,451.476 93.1851,450.476 94.5,449.5 Z"/></g>
<g><path style="opacity:0.882" fill="#4b484a" d="M 320.5,457.5 C 317.646,457.882 314.646,457.882 311.5,457.5C 313.22,454.269 315.553,451.436 318.5,449C 321.882,448.176 325.216,448.343 328.5,449.5C 326.146,452.521 323.479,455.188 320.5,457.5 Z"/></g>
<g><path style="opacity:0.075" fill="#4a474a" d="M 357.5,450.5 C 355.035,452.837 352.035,454.337 348.5,455C 343.725,455.346 339.058,456.179 334.5,457.5C 337.579,452.894 341.579,449.728 346.5,448C 344.981,449.351 343.648,450.851 342.5,452.5C 342.833,452.833 343.167,453.167 343.5,453.5C 347.023,452.315 350.023,450.315 352.5,447.5C 353.386,448.325 353.719,449.325 353.5,450.5C 354.833,450.5 356.167,450.5 357.5,450.5 Z"/></g>
<g><path style="opacity:0.047" fill="#383636" d="M 329.5,457.5 C 328.833,457.5 328.167,457.5 327.5,457.5C 329.443,453.722 332.277,450.722 336,448.5C 336.5,448.667 337,448.833 337.5,449C 333.952,451.047 331.285,453.88 329.5,457.5 Z"/></g>
<g><path style="opacity:0.912" fill="#f5f4f5" d="M 129.5,462.5 C 130.376,462.369 131.043,462.702 131.5,463.5C 134.135,468.432 136.468,473.432 138.5,478.5C 134.965,482.355 131.298,486.188 127.5,490C 124.691,491.323 122.025,492.823 119.5,494.5C 117.847,491.869 116.181,489.203 114.5,486.5C 112.914,484.33 111.58,481.996 110.5,479.5C 112.255,478.928 113.922,478.094 115.5,477C 120.035,472.297 124.702,467.797 129.5,463.5C 129.5,463.167 129.5,462.833 129.5,462.5 Z"/></g>
<g><path style="opacity:1" fill="#f5f4f6" d="M 551.5,466.5 C 548.091,472.878 544.758,479.211 541.5,485.5C 541.649,484.448 541.483,483.448 541,482.5C 537.869,486.633 534.369,490.466 530.5,494C 530.728,494.399 531.062,494.565 531.5,494.5C 511.14,514.527 490.807,534.527 470.5,554.5C 468.938,554.733 467.605,555.4 466.5,556.5C 471.087,549.24 476.087,542.24 481.5,535.5C 504.86,512.473 528.194,489.473 551.5,466.5 Z"/></g>
<g><path style="opacity:0.946" fill="#f4f3f4" d="M 138.5,478.5 C 140.226,480.942 141.726,483.609 143,486.5C 143.75,487.126 144.584,487.626 145.5,488C 145.167,488.333 144.833,488.667 144.5,489C 147.268,489.708 148.101,491.208 147,493.5C 148.707,495.037 150.207,496.704 151.5,498.5C 144.803,504.196 138.803,510.53 133.5,517.5C 128.584,510.003 123.917,502.337 119.5,494.5C 122.025,492.823 124.691,491.323 127.5,490C 131.298,486.188 134.965,482.355 138.5,478.5 Z"/></g>
<g><path style="opacity:0.761" fill="#bebbbd" d="M 541.5,485.5 C 540.833,486.833 539.833,487.833 538.5,488.5C 536.167,490.5 533.833,492.5 531.5,494.5C 531.062,494.565 530.728,494.399 530.5,494C 534.369,490.466 537.869,486.633 541,482.5C 541.483,483.448 541.649,484.448 541.5,485.5 Z"/></g>
<g><path style="opacity:0.986" fill="#f6f6f7" d="M 538.5,488.5 C 535.78,493.531 533.114,498.531 530.5,503.5C 524.194,508.118 518.194,513.785 512.5,520.5C 493.647,539.852 474.647,559.019 455.5,578C 453.03,578.989 450.697,580.155 448.5,581.5C 453.167,575.167 457.833,568.833 462.5,562.5C 465.5,560.167 468.167,557.5 470.5,554.5C 490.807,534.527 511.14,514.527 531.5,494.5C 533.833,492.5 536.167,490.5 538.5,488.5 Z"/></g>
<g><path style="opacity:0.862" fill="#474347" d="M 114.5,486.5 C 116.181,489.203 117.847,491.869 119.5,494.5C 123.917,502.337 128.584,510.003 133.5,517.5C 136.167,522.167 138.833,526.833 141.5,531.5C 137.9,533.43 134.9,536.097 132.5,539.5C 132.167,539.5 131.833,539.5 131.5,539.5C 122.235,524.633 113.235,509.633 104.5,494.5C 107.564,491.43 110.897,488.763 114.5,486.5 Z"/></g>
<g><path style="opacity:0.914" fill="#f6f5f6" d="M 151.5,498.5 C 160.055,513.496 169.888,529.163 181,545.5C 196.011,565.682 210.845,586.015 225.5,606.5C 220.14,612.527 214.473,618.194 208.5,623.5C 206.97,622.789 205.637,621.789 204.5,620.5C 203.974,618.77 202.974,617.436 201.5,616.5C 201.5,615.833 201.167,615.5 200.5,615.5C 196.654,609.138 192.321,603.138 187.5,597.5C 181.821,589.462 176.154,581.462 170.5,573.5C 169.488,572.128 168.488,570.795 167.5,569.5C 162.134,561.81 156.801,554.143 151.5,546.5C 151.5,546.167 151.5,545.833 151.5,545.5C 148.154,540.796 144.821,536.129 141.5,531.5C 138.833,526.833 136.167,522.167 133.5,517.5C 138.803,510.53 144.803,504.196 151.5,498.5 Z"/></g>
<g><path style="opacity:0.999" fill="#f2f1f3" d="M 528.5,506.5 C 528.25,508.941 527.25,510.941 525.5,512.5C 523.629,512.859 522.129,513.859 521,515.5C 518.417,518.997 516.084,522.664 514,526.5C 508.297,532.035 502.797,537.702 497.5,543.5C 470.779,570.887 443.779,597.887 416.5,624.5C 416.351,623.448 416.517,622.448 417,621.5C 428.266,608.56 438.766,595.226 448.5,581.5C 450.697,580.155 453.03,578.989 455.5,578C 474.647,559.019 493.647,539.852 512.5,520.5C 518.11,516.228 523.443,511.562 528.5,506.5 Z"/></g>
<g><path style="opacity:1" fill="#c8c9cc" d="M 530.5,503.5 C 530.068,504.71 529.401,505.71 528.5,506.5C 523.443,511.562 518.11,516.228 512.5,520.5C 518.194,513.785 524.194,508.118 530.5,503.5 Z"/></g>
<g><path style="opacity:1" fill="#f5f5f6" d="M 514.5,528.5 C 511.982,535.329 507.982,540.996 502.5,545.5C 497.528,550.807 492.528,556.14 487.5,561.5C 456.953,592.545 426.619,623.045 396.5,653C 395.207,653.49 393.873,653.657 392.5,653.5C 400.261,643.649 408.261,633.982 416.5,624.5C 443.779,597.887 470.779,570.887 497.5,543.5C 503.444,538.894 509.11,533.894 514.5,528.5 Z"/></g>
<g><path style="opacity:0.004" fill="#484448" d="M 130.5,539.5 C 129.833,538.167 129.833,538.167 130.5,539.5 Z"/></g>
<g><path style="opacity:0.451" fill="#282527" d="M 141.5,531.5 C 139.57,535.1 136.903,538.1 133.5,540.5C 132.833,540.5 132.5,540.167 132.5,539.5C 134.9,536.097 137.9,533.43 141.5,531.5 Z"/></g>
<g><path style="opacity:0.004" fill="#353336" d="M 130.5,539.5 C 130.833,539.5 131.167,539.5 131.5,539.5C 131.315,540.17 130.981,540.17 130.5,539.5 Z"/></g>
<g><path style="opacity:1" fill="#cfcfd1" d="M 525.5,512.5 C 521.771,517.877 518.104,523.211 514.5,528.5C 509.11,533.894 503.444,538.894 497.5,543.5C 502.797,537.702 508.297,532.035 514,526.5C 516.084,522.664 518.417,518.997 521,515.5C 522.129,513.859 523.629,512.859 525.5,512.5 Z"/></g>
<g><path style="opacity:0.531" fill="#474247" d="M 141.5,531.5 C 144.821,536.129 148.154,540.796 151.5,545.5C 147.564,547.766 144.231,550.766 141.5,554.5C 138.345,550.199 135.678,545.532 133.5,540.5C 136.903,538.1 139.57,535.1 141.5,531.5 Z"/></g>
<g><path style="opacity:0.788" fill="#1d1b1d" d="M 151.5,545.5 C 151.5,545.833 151.5,546.167 151.5,546.5C 148.167,549.167 145.167,552.167 142.5,555.5C 141.833,555.5 141.5,555.167 141.5,554.5C 144.231,550.766 147.564,547.766 151.5,545.5 Z"/></g>
<g><path style="opacity:0.82" fill="#b8b9b9" d="M 502.5,545.5 C 501.921,548.331 500.588,550.664 498.5,552.5C 495.105,555.902 491.438,558.902 487.5,561.5C 492.528,556.14 497.528,550.807 502.5,545.5 Z"/></g>
<g><path style="opacity:0.363" fill="#8d8b8d" d="M 538.5,436.5 C 536.446,441.609 534.113,446.609 531.5,451.5C 527.597,458.304 523.93,465.304 520.5,472.5C 512.3,484.023 504.966,496.023 498.5,508.5C 493.297,516.529 487.797,524.529 482,532.5C 481.517,533.448 481.351,534.448 481.5,535.5C 476.087,542.24 471.087,549.24 466.5,556.5C 463.956,557.708 462.622,559.708 462.5,562.5C 457.833,568.833 453.167,575.167 448.5,581.5C 438.766,595.226 428.266,608.56 417,621.5C 416.517,622.448 416.351,623.448 416.5,624.5C 408.261,633.982 400.261,643.649 392.5,653.5C 388.684,656.814 385.851,660.814 384,665.5C 369.564,680.761 355.731,696.428 342.5,712.5C 339.5,715.167 336.5,717.833 333.5,720.5C 356.172,693.66 378.672,666.66 401,639.5C 418.718,616.783 436.051,593.783 453,570.5C 468.751,545.995 484.751,521.662 501,497.5C 505.336,487.483 510.669,478.15 517,469.5C 519.733,464.27 522.233,458.936 524.5,453.5C 525.822,453.67 526.989,453.337 528,452.5C 530.326,447.69 532.159,442.69 533.5,437.5C 535.292,437.634 536.958,437.301 538.5,436.5 Z"/></g>
<g><path style="opacity:0.996" fill="#444044" d="M 151.5,546.5 C 156.801,554.143 162.134,561.81 167.5,569.5C 163.897,571.763 160.564,574.43 157.5,577.5C 155.084,575.092 153.084,572.426 151.5,569.5C 150.68,567.86 149.847,566.193 149,564.5C 147.243,564.867 145.743,564.034 144.5,562C 145.167,561.667 145.833,561.333 146.5,561C 144.321,560.558 143.655,559.558 144.5,558C 143.619,557.292 142.953,556.458 142.5,555.5C 145.167,552.167 148.167,549.167 151.5,546.5 Z"/></g>
<g><path style="opacity:1" fill="#c5c3c7" d="M 470.5,554.5 C 468.167,557.5 465.5,560.167 462.5,562.5C 462.622,559.708 463.956,557.708 466.5,556.5C 467.605,555.4 468.938,554.733 470.5,554.5 Z"/></g>
<g><path style="opacity:1" fill="#f1f0f2" d="M 498.5,552.5 C 496.913,556.683 494.579,560.35 491.5,563.5C 491.225,561.158 490.392,561.158 489,563.5C 484.441,570.782 479.274,577.615 473.5,584C 474.577,584.47 475.577,584.303 476.5,583.5C 476.446,585.632 475.446,586.965 473.5,587.5C 472.833,587.833 472.167,588.167 471.5,588.5C 471.565,588.062 471.399,587.728 471,587.5C 468.157,590.675 464.99,593.509 461.5,596C 423.1,635.167 384.433,673.667 345.5,711.5C 344.391,711.557 343.391,711.89 342.5,712.5C 355.731,696.428 369.564,680.761 384,665.5C 385.851,660.814 388.684,656.814 392.5,653.5C 393.873,653.657 395.207,653.49 396.5,653C 426.619,623.045 456.953,592.545 487.5,561.5C 491.438,558.902 495.105,555.902 498.5,552.5 Z"/></g>
<g><path style="opacity:0.286" fill="#c2c2c4" d="M 491.5,563.5 C 486.524,570.148 481.524,576.815 476.5,583.5C 475.577,584.303 474.577,584.47 473.5,584C 479.274,577.615 484.441,570.782 489,563.5C 490.392,561.158 491.225,561.158 491.5,563.5 Z"/></g>
<g><path style="opacity:0.004" fill="#353438" d="M 151.5,569.5 C 150.833,570.167 150.833,570.167 151.5,569.5 Z"/></g>
<g><path style="opacity:0.702" fill="#252224" d="M 167.5,569.5 C 165.237,573.103 162.57,576.436 159.5,579.5C 158.527,579.013 157.527,578.513 156.5,578C 156.728,577.601 157.062,577.435 157.5,577.5C 160.564,574.43 163.897,571.763 167.5,569.5 Z"/></g>
<g><path style="opacity:1" fill="#514c50" d="M 167.5,569.5 C 168.488,570.795 169.488,572.128 170.5,573.5C 167.167,576.167 164.167,579.167 161.5,582.5C 160.094,582.027 159.427,581.027 159.5,579.5C 162.57,576.436 165.237,573.103 167.5,569.5 Z"/></g>
<g><path style="opacity:1" fill="#191919" d="M 170.5,573.5 C 168.237,577.103 165.57,580.436 162.5,583.5C 161.833,583.5 161.5,583.167 161.5,582.5C 164.167,579.167 167.167,576.167 170.5,573.5 Z"/></g>
<g><path style="opacity:0.004" fill="#484448" d="M 165.5,589.5 C 164.833,590.167 164.833,590.167 165.5,589.5 Z"/></g>
<g><path style="opacity:1" fill="#f4f3f5" d="M 471.5,588.5 C 467.343,594.137 463.176,599.804 459,605.5C 453.63,610.702 448.464,616.035 443.5,621.5C 399.996,665.333 356.996,708.667 314.5,751.5C 312.167,749.833 310.167,747.833 308.5,745.5C 309.583,745.461 310.583,745.127 311.5,744.5C 316.187,740.145 320.854,735.812 325.5,731.5C 332.5,725.167 339.167,718.5 345.5,711.5C 384.433,673.667 423.1,635.167 461.5,596C 464.99,593.509 468.157,590.675 471,587.5C 471.399,587.728 471.565,588.062 471.5,588.5 Z"/></g>
<g><path style="opacity:0.776" fill="#413d41" d="M 170.5,573.5 C 176.154,581.462 181.821,589.462 187.5,597.5C 183.9,599.43 180.9,602.097 178.5,605.5C 176.197,603.033 173.697,600.7 171,598.5C 169.656,595.135 167.823,592.135 165.5,589.5C 164.718,587.549 163.384,586.049 161.5,585C 162.056,584.617 162.389,584.117 162.5,583.5C 165.57,580.436 168.237,577.103 170.5,573.5 Z"/></g>
<g><path style="opacity:0.996" fill="#222021" d="M 187.5,597.5 C 185.57,601.1 182.903,604.1 179.5,606.5C 178.833,606.5 178.5,606.167 178.5,605.5C 180.9,602.097 183.9,599.43 187.5,597.5 Z"/></g>
<g><path style="opacity:1" fill="#1d1d1f" d="M 182.5,611.5 C 180.895,610.994 180.561,610.327 181.5,609.5C 183.63,607.873 185.63,606.04 187.5,604C 188.167,603.333 188.833,603.333 189.5,604C 186.961,606.37 184.628,608.87 182.5,611.5 Z"/></g>
<g><path style="opacity:0.568" fill="#484347" d="M 187.5,597.5 C 192.321,603.138 196.654,609.138 200.5,615.5C 197.5,618.167 194.5,620.833 191.5,623.5C 190.5,623.167 189.833,622.5 189.5,621.5C 200.167,609.5 199.5,608.833 187.5,619.5C 186.515,616.515 184.515,614.515 181.5,613.5C 181.863,612.817 182.196,612.15 182.5,611.5C 184.628,608.87 186.961,606.37 189.5,604C 188.833,603.333 188.167,603.333 187.5,604C 185.63,606.04 183.63,607.873 181.5,609.5C 180.737,608.732 179.737,608.232 178.5,608C 179.056,607.617 179.389,607.117 179.5,606.5C 182.903,604.1 185.57,601.1 187.5,597.5 Z"/></g>
<g><path style="opacity:0.938" fill="#f5f4f5" d="M 225.5,606.5 C 239.57,624.937 253.903,643.27 268.5,661.5C 262.085,667.248 256.418,672.915 251.5,678.5C 249.806,677.473 248.473,676.139 247.5,674.5C 247.5,673.833 247.167,673.5 246.5,673.5C 240.848,665.851 234.848,658.518 228.5,651.5C 228.262,649.596 227.262,648.262 225.5,647.5C 222.397,642.948 219.064,638.614 215.5,634.5C 215.5,633.833 215.167,633.5 214.5,633.5C 213.488,632.128 212.488,630.795 211.5,629.5C 210.5,627.5 209.5,625.5 208.5,623.5C 214.473,618.194 220.14,612.527 225.5,606.5 Z"/></g>
<g><path style="opacity:1" fill="#221f22" d="M 189.5,621.5 C 188.5,621.167 187.833,620.5 187.5,619.5C 199.5,608.833 200.167,609.5 189.5,621.5 Z"/></g>
<g><path style="opacity:1" fill="#1f1d1f" d="M 200.5,615.5 C 201.167,615.5 201.5,615.833 201.5,616.5C 198.833,619.5 196.167,622.5 193.5,625.5C 192.167,625.5 191.5,624.833 191.5,623.5C 194.5,620.833 197.5,618.167 200.5,615.5 Z"/></g>
<g><path style="opacity:1" fill="#c6c6c7" d="M 473.5,587.5 C 463.131,603.584 451.797,618.917 439.5,633.5C 439.5,632.833 439.167,632.5 438.5,632.5C 441.142,628.852 443.809,625.185 446.5,621.5C 445.767,620.913 444.767,620.913 443.5,621.5C 448.464,616.035 453.63,610.702 459,605.5C 463.176,599.804 467.343,594.137 471.5,588.5C 472.167,588.167 472.833,587.833 473.5,587.5 Z"/></g>
<g><path style="opacity:1" fill="#f5f4f5" d="M 438.5,632.5 C 434.167,637.833 429.833,643.167 425.5,648.5C 421.544,650.788 418.211,653.788 415.5,657.5C 382.914,690.752 350.248,723.419 317.5,755.5C 317.167,755.5 316.833,755.5 316.5,755.5C 315.4,754.395 314.733,753.062 314.5,751.5C 356.996,708.667 399.996,665.333 443.5,621.5C 444.767,620.913 445.767,620.913 446.5,621.5C 443.809,625.185 441.142,628.852 438.5,632.5 Z"/></g>
<g><path style="opacity:0.999" fill="#3d393d" d="M 201.5,616.5 C 202.974,617.436 203.974,618.77 204.5,620.5C 203.481,622.54 203.481,624.54 204.5,626.5C 205.478,626.023 206.311,625.357 207,624.5C 207.167,625 207.333,625.5 207.5,626C 205.346,628.987 203.013,631.82 200.5,634.5C 197.453,632.082 195.12,629.082 193.5,625.5C 196.167,622.5 198.833,619.5 201.5,616.5 Z"/></g>
<g><path style="opacity:1" fill="#524d51" d="M 204.5,620.5 C 205.637,621.789 206.97,622.789 208.5,623.5C 209.5,625.5 210.5,627.5 211.5,629.5C 207.9,631.43 204.9,634.097 202.5,637.5C 201.094,637.027 200.427,636.027 200.5,634.5C 203.013,631.82 205.346,628.987 207.5,626C 207.333,625.5 207.167,625 207,624.5C 206.311,625.357 205.478,626.023 204.5,626.5C 203.481,624.54 203.481,622.54 204.5,620.5 Z"/></g>
<g><path style="opacity:0.549" fill="#211e20" d="M 211.5,629.5 C 209.237,633.103 206.57,636.436 203.5,639.5C 202.662,639.158 202.328,638.492 202.5,637.5C 204.9,634.097 207.9,631.43 211.5,629.5 Z"/></g>
<g><path style="opacity:1" fill="#1c1b1c" d="M 214.5,633.5 C 215.167,633.5 215.5,633.833 215.5,634.5C 212.167,637.167 209.167,640.167 206.5,643.5C 205.662,643.158 205.328,642.492 205.5,641.5C 208.5,638.833 211.5,636.167 214.5,633.5 Z"/></g>
<g><path style="opacity:0.876" fill="#4d484d" d="M 211.5,629.5 C 212.488,630.795 213.488,632.128 214.5,633.5C 211.5,636.167 208.5,638.833 205.5,641.5C 204.5,641.167 203.833,640.5 203.5,639.5C 206.57,636.436 209.237,633.103 211.5,629.5 Z"/></g>
<g><path style="opacity:0.839" fill="#a9a4a6" d="M 438.5,632.5 C 439.167,632.5 439.5,632.833 439.5,633.5C 435.47,638.524 431.47,643.524 427.5,648.5C 426.833,648.5 426.167,648.5 425.5,648.5C 429.833,643.167 434.167,637.833 438.5,632.5 Z"/></g>
<g><path style="opacity:0.78" fill="#cbcacc" d="M 425.5,648.5 C 426.167,648.5 426.833,648.5 427.5,648.5C 422.516,655.48 417.183,662.146 411.5,668.5C 411.5,667.833 411.167,667.5 410.5,667.5C 412.419,664.681 414.585,662.014 417,659.5C 417.528,658.184 417.028,657.517 415.5,657.5C 418.211,653.788 421.544,650.788 425.5,648.5 Z"/></g>
<g><path style="opacity:0.004" fill="#474347" d="M 214.5,655.5 C 215.833,656.167 215.833,656.167 214.5,655.5 Z"/></g>
<g><path style="opacity:0.996" fill="#4f4a4e" d="M 225.5,647.5 C 227.262,648.262 228.262,649.596 228.5,651.5C 226.37,653.127 224.37,654.96 222.5,657C 221.275,657.563 220.275,657.23 219.5,656C 221.745,653.269 223.745,650.436 225.5,647.5 Z"/></g>
<g><path style="opacity:1" fill="#f8f8f9" d="M 415.5,657.5 C 417.028,657.517 417.528,658.184 417,659.5C 414.585,662.014 412.419,664.681 410.5,667.5C 402.937,677.403 394.604,686.737 385.5,695.5C 382.036,698.462 378.703,701.629 375.5,705C 377.387,705.163 378.887,704.329 380,702.5C 380.399,702.728 380.565,703.062 380.5,703.5C 366.908,720.096 352.574,736.096 337.5,751.5C 333.854,754.479 330.521,757.812 327.5,761.5C 326.311,762.429 324.978,762.762 323.5,762.5C 323.167,761.5 322.5,760.833 321.5,760.5C 321.5,759.833 321.167,759.5 320.5,759.5C 319.833,758.167 318.833,757.167 317.5,756.5C 317.5,756.167 317.5,755.833 317.5,755.5C 350.248,723.419 382.914,690.752 415.5,657.5 Z"/></g>
<g><path style="opacity:0.989" fill="#3f3b3f" d="M 215.5,634.5 C 219.064,638.614 222.397,642.948 225.5,647.5C 223.745,650.436 221.745,653.269 219.5,656C 220.275,657.23 221.275,657.563 222.5,657C 224.37,654.96 226.37,653.127 228.5,651.5C 234.848,658.518 240.848,665.851 246.5,673.5C 243.5,676.167 240.5,678.833 237.5,681.5C 235.5,679.5 233.5,677.5 231.5,675.5C 223.167,664.833 214.833,654.167 206.5,643.5C 209.167,640.167 212.167,637.167 215.5,634.5 Z"/></g>
<g><path style="opacity:0.004" fill="#464246" d="M 231.5,675.5 C 230.833,676.167 230.833,676.167 231.5,675.5 Z"/></g>
<g><path style="opacity:0.941" fill="#f6f5f6" d="M 268.5,661.5 C 284.427,680.602 300.594,699.602 317,718.5C 320.036,721.704 323.203,724.704 326.5,727.5C 326.167,728.833 325.833,730.167 325.5,731.5C 320.854,735.812 316.187,740.145 311.5,744.5C 310.583,745.127 309.583,745.461 308.5,745.5C 302.599,739.355 296.932,733.022 291.5,726.5C 291.5,725.833 291.167,725.5 290.5,725.5C 289.833,724.167 288.833,723.167 287.5,722.5C 287.5,722.167 287.5,721.833 287.5,721.5C 285.833,720.5 284.5,719.167 283.5,717.5C 280.542,712.874 276.876,708.874 272.5,705.5C 270.889,701.949 268.556,698.949 265.5,696.5C 265.5,695.833 265.167,695.5 264.5,695.5C 260.409,689.653 256.076,683.987 251.5,678.5C 256.418,672.915 262.085,667.248 268.5,661.5 Z"/></g>
<g><path style="opacity:0.004" fill="#191919" d="M 246.5,673.5 C 247.167,673.5 247.5,673.833 247.5,674.5C 244.194,677.14 241.194,680.14 238.5,683.5C 237.662,683.158 237.328,682.492 237.5,681.5C 240.5,678.833 243.5,676.167 246.5,673.5 Z"/></g>
<g><path style="opacity:0.506" fill="#b0adaf" d="M 410.5,667.5 C 411.167,667.5 411.5,667.833 411.5,668.5C 404.167,677.337 397,686.337 390,695.5C 387.963,697.706 385.797,699.706 383.5,701.5C 384.203,699.284 385.536,697.451 387.5,696C 386.906,695.536 386.239,695.369 385.5,695.5C 394.604,686.737 402.937,677.403 410.5,667.5 Z"/></g>
<g><path style="opacity:0.92" fill="#3e3b3e" d="M 247.5,674.5 C 248.473,676.139 249.806,677.473 251.5,678.5C 256.076,683.987 260.409,689.653 264.5,695.5C 261.5,698.167 258.5,700.833 255.5,703.5C 249.863,696.858 244.196,690.192 238.5,683.5C 241.194,680.14 244.194,677.14 247.5,674.5 Z"/></g>
<g><path style="opacity:1" fill="#d4d3d4" d="M 385.5,695.5 C 386.239,695.369 386.906,695.536 387.5,696C 385.536,697.451 384.203,699.284 383.5,701.5C 383.573,703.027 382.906,704.027 381.5,704.5C 381.5,703.833 381.167,703.5 380.5,703.5C 380.565,703.062 380.399,702.728 380,702.5C 378.887,704.329 377.387,705.163 375.5,705C 378.703,701.629 382.036,698.462 385.5,695.5 Z"/></g>
<g><path style="opacity:0.314" fill="#201e20" d="M 264.5,695.5 C 265.167,695.5 265.5,695.833 265.5,696.5C 262.833,699.833 259.833,702.833 256.5,705.5C 256.167,704.833 255.833,704.167 255.5,703.5C 258.5,700.833 261.5,698.167 264.5,695.5 Z"/></g>
<g><path style="opacity:0.999" fill="#3e3b3e" d="M 265.5,696.5 C 268.556,698.949 270.889,701.949 272.5,705.5C 269.833,708.5 267.167,711.5 264.5,714.5C 261.862,711.526 259.195,708.526 256.5,705.5C 259.833,702.833 262.833,699.833 265.5,696.5 Z"/></g>
<g><path style="opacity:0.802" fill="#373437" d="M 272.5,724.5 C 270.865,722.19 269.199,719.857 267.5,717.5C 269.071,714.256 271.405,711.589 274.5,709.5C 274.833,709.833 275.167,710.167 275.5,710.5C 274.24,713.055 272.906,715.555 271.5,718C 272.167,718.667 272.833,718.667 273.5,718C 275.017,716.315 276.684,714.815 278.5,713.5C 278.833,713.833 279.167,714.167 279.5,714.5C 276.664,717.513 274.331,720.846 272.5,724.5 Z"/></g>
<g><path style="opacity:1" fill="#504b4e" d="M 272.5,705.5 C 276.876,708.874 280.542,712.874 283.5,717.5C 279.897,719.763 276.564,722.43 273.5,725.5C 272.833,725.5 272.5,725.167 272.5,724.5C 274.331,720.846 276.664,717.513 279.5,714.5C 279.167,714.167 278.833,713.833 278.5,713.5C 276.684,714.815 275.017,716.315 273.5,718C 272.833,718.667 272.167,718.667 271.5,718C 272.906,715.555 274.24,713.055 275.5,710.5C 275.167,710.167 274.833,709.833 274.5,709.5C 271.405,711.589 269.071,714.256 267.5,717.5C 266.167,716.833 265.167,715.833 264.5,714.5C 267.167,711.5 269.833,708.5 272.5,705.5 Z"/></g>
<g><path style="opacity:1" fill="#201f20" d="M 283.5,717.5 C 281.206,721.127 278.54,724.461 275.5,727.5C 274.5,727.167 273.833,726.5 273.5,725.5C 276.564,722.43 279.897,719.763 283.5,717.5 Z"/></g>
<g><path style="opacity:0.986" fill="#b4b1b0" d="M 345.5,711.5 C 339.167,718.5 332.5,725.167 325.5,731.5C 325.833,730.167 326.167,728.833 326.5,727.5C 328.5,724.833 330.833,722.5 333.5,720.5C 336.5,717.833 339.5,715.167 342.5,712.5C 343.391,711.89 344.391,711.557 345.5,711.5 Z"/></g>
<g><path style="opacity:0.899" fill="#504b50" d="M 283.5,717.5 C 284.5,719.167 285.833,720.5 287.5,721.5C 283.897,723.763 280.564,726.43 277.5,729.5C 276.5,729.167 275.833,728.5 275.5,727.5C 278.54,724.461 281.206,721.127 283.5,717.5 Z"/></g>
<g><path style="opacity:1" fill="#1d1c1d" d="M 287.5,721.5 C 287.5,721.833 287.5,722.167 287.5,722.5C 284.5,725.167 281.5,727.833 278.5,730.5C 277.833,730.5 277.5,730.167 277.5,729.5C 280.564,726.43 283.897,723.763 287.5,721.5 Z"/></g>
<g><path style="opacity:1" fill="#4c484c" d="M 287.5,722.5 C 288.833,723.167 289.833,724.167 290.5,725.5C 287.167,728.167 284.167,731.167 281.5,734.5C 280.512,733.205 279.512,731.872 278.5,730.5C 281.5,727.833 284.5,725.167 287.5,722.5 Z"/></g>
<g><path style="opacity:0.89" fill="#9b9799" d="M 380.5,703.5 C 381.167,703.5 381.5,703.833 381.5,704.5C 368.511,720.154 355.177,735.488 341.5,750.5C 339.983,750.511 338.816,751.177 338,752.5C 337.601,752.272 337.435,751.938 337.5,751.5C 352.574,736.096 366.908,720.096 380.5,703.5 Z"/></g>
<g><path style="opacity:0.451" fill="#1d1c1d" d="M 290.5,725.5 C 291.167,725.5 291.5,725.833 291.5,726.5C 288.167,729.167 285.167,732.167 282.5,735.5C 282.5,734.833 282.167,734.5 281.5,734.5C 284.167,731.167 287.167,728.167 290.5,725.5 Z"/></g>
<g><path style="opacity:0.697" fill="#403d40" d="M 291.5,726.5 C 296.932,733.022 302.599,739.355 308.5,745.5C 310.167,747.833 312.167,749.833 314.5,751.5C 314.733,753.062 315.4,754.395 316.5,755.5C 313.167,758.167 310.167,761.167 307.5,764.5C 305.5,762.167 303.5,759.833 301.5,757.5C 301.631,756.761 301.464,756.094 301,755.5C 295.388,750.432 289.888,745.265 284.5,740C 284.833,739.667 285.167,739.333 285.5,739C 284.29,737.961 283.29,736.794 282.5,735.5C 285.167,732.167 288.167,729.167 291.5,726.5 Z"/></g>
<g><path style="opacity:0.004" fill="#494649" d="M 298.5,755.5 C 297.833,754.167 297.833,754.167 298.5,755.5 Z"/></g>
<g><path style="opacity:0.004" fill="#494549" d="M 298.5,755.5 C 299.167,755.5 299.5,755.833 299.5,756.5C 299.167,756.167 298.833,755.833 298.5,755.5 Z"/></g>
<g><path style="opacity:0.88" fill="#bab8ba" d="M 341.5,750.5 C 336.584,756.022 331.917,761.689 327.5,767.5C 326.396,765.611 325.063,763.945 323.5,762.5C 324.978,762.762 326.311,762.429 327.5,761.5C 330.521,757.812 333.854,754.479 337.5,751.5C 337.435,751.938 337.601,752.272 338,752.5C 338.816,751.177 339.983,750.511 341.5,750.5 Z"/></g>
<g><path style="opacity:0.004" fill="#3c393d" d="M 299.5,756.5 C 300.167,756.5 300.5,756.833 300.5,757.5C 300.167,757.167 299.833,756.833 299.5,756.5 Z"/></g>
<g><path style="opacity:0.004" fill="#474348" d="M 300.5,757.5 C 300.833,757.5 301.167,757.5 301.5,757.5C 301.315,758.17 300.981,758.17 300.5,757.5 Z"/></g>
<g><path style="opacity:1" fill="#232123" d="M 316.5,755.5 C 316.833,755.5 317.167,755.5 317.5,755.5C 317.5,755.833 317.5,756.167 317.5,756.5C 314.806,759.86 311.806,762.86 308.5,765.5C 307.833,765.5 307.5,765.167 307.5,764.5C 310.167,761.167 313.167,758.167 316.5,755.5 Z"/></g>
<g><path style="opacity:1" fill="#4e494e" d="M 317.5,756.5 C 318.833,757.167 319.833,758.167 320.5,759.5C 317.167,762.167 314.167,765.167 311.5,768.5C 310.167,767.833 309.167,766.833 308.5,765.5C 311.806,762.86 314.806,759.86 317.5,756.5 Z"/></g>
<g><path style="opacity:1" fill="#211f22" d="M 320.5,759.5 C 321.167,759.5 321.5,759.833 321.5,760.5C 318.833,763.833 315.833,766.833 312.5,769.5C 311.833,769.5 311.5,769.167 311.5,768.5C 314.167,765.167 317.167,762.167 320.5,759.5 Z"/></g>
<g><path style="opacity:0.182" fill="#4a474a" d="M 321.5,760.5 C 322.5,760.833 323.167,761.5 323.5,762.5C 325.063,763.945 326.396,765.611 327.5,767.5C 325.087,770.918 322.087,773.585 318.5,775.5C 316.073,774.029 314.073,772.029 312.5,769.5C 315.833,766.833 318.833,763.833 321.5,760.5 Z"/></g>
</svg>
